<svg id="Layer_1" data-name="Layer 1" xmlns="http://www.w3.org/2000/svg" viewBox="0 0 2048 2048"><path d="M256,562.74H1792v922.52H256V562.74ZM1024,685.5,1565.3,1024,1024,1362.5,482.7,1024Z" fill="#424242" fill-rule="evenodd"/><path d="M1024,793.5c127.3,0,230.5,103.2,230.5,230.5s-103.2,230.5-230.5,230.5S793.5,1151.3,793.5,1024,896.7,793.5,1024,793.5ZM920.42,902.61a496.13,496.13,0,0,0-68.31,4.84,208.47,208.47,0,0,0-10.55,30.35A465,465,0,0,1,920.42,931a452,452,0,0,1,303,116,184.21,184.21,0,0,0,7-31.42,479.91,479.91,0,0,0-310-113Zm111.75,242.78.67-1.93-1.71-1.2h2l.65-2,.64,2h2.13l-1.7,1.19.51,1.94-1.62-1.19ZM949.11,1100l2-5.87-5.2-3.61h6.29l1.88-6,1.92,6h6.31l-5.1,3.59,1.86,5.89-5-3.64-5,3.64Zm125.13,3.64,1.27-3.92-3.33-2.46h4.21l1.27-3.89,1.26,3.89h4l-3.26,2.42,1.28,4-3.4-2.42-3.34,2.42Zm32.82,4.83,1.23-3.81-3.45-2.44H1109l1.28-4,1.29,4h4.1l-3.31,2.38,1.26,3.87-3.3-2.42-3.28,2.42Zm-17.91,18.75,1.54-4.93-4.08-3.07h5.14l1.6-4.88,1.59,4.88H1100l-4.16,3.07,1.61,4.93-4.15-3Zm-67.69-72.68,1-2.83L1020,1050H1023l.91-2.77.86,2.77h3l-2.43,1.85.84,2.74-2.34-1.74-2.34,1.74Zm-10.86-12.51,1.26-3.9-3.32-2.44h4l1.27-3.93,1.37,3.93h4.09l-3.28,2.38,1.22,4-3.29-2.43Zm19.11-16.69,1.58-5-4.13-2.94h5l1.61-4.83,1.56,4.83h5.18l-4.11,3,1.57,5-4.16-3-4.15,3Zm22.9,17.83,1.62-4.94-4.08-2.94h5.12l1.62-4.91,1.62,4.91h5l-4.15,3,1.61,4.93-4.17-3.07Zm-23.78,40.62,1.93-5.94-5-3.61h6.13l2-5.87,1.91,5.87h6.18L1037,1078l1.85,5.87-5-3.67Zm55.72-101.45,1.26-3.93-3.32-2.4h4.14l1.17-4,1.4,4h4.15l-3.44,2.43,1.37,3.9-3.39-2.47-3.34,2.47Zm-130.61,19.22,1.67-4.84-4.21-3.08h5.21l1.61-4.88,1.56,4.88H965l-4.1,3.06,1.49,4.86-4.17-3-4.23,3Zm175.22,100.25,1.27-3.95-3.33-2.42h4.07l1.17-4,1.39,4H1138l-3.39,2.39,1.33,4-3.43-2.52Zm35.59-5.23,1.66-4.77-4.2-3h5.17l1.57-4.91,1.63,4.91h5l-4,3,1.48,4.78-4.09-3-4.22,3Zm-15.06,8.93,1.31-3.85-3.37-2.5h4.1l1.37-3.93,1.14,3.93h4.17l-3.37,2.5,1.3,3.85-3.32-2.39-3.33,2.39Zm-20,35.62,1.27-3.83-3.32-2.4h4.08L1133,1131l1.28,3.92h4.1l-3.34,2.34,1.28,3.89-3.34-2.33Zm-.55-18.79,1.57-4.93-4.1-3h5l1.63-4.94,1.58,4.94H1140l-4.14,3,1.45,4.94-4.09-3Zm47.79-41.61,1.56-4.94-4.1-2.94h5.15l1.51-5,1.57,5h5.17l-4.07,3,1.53,4.84-4.16-3.08-4.16,3.08Zm20.29-16.84,1.24-3.86-3.3-2.43h4.07l1.4-3.93,1.28,3.93h4l-3.21,2.36,1.15,3.93-3.29-2.42-3.29,2.42Zm-29.25.44,1.91-5.88-5.07-3.63H1171l1.89-5.87,2,5.87h6.21l-4.9,3.59,2,5.92-5.1-3.65Zm-77.58-131.27,2-5.94-5.06-3.65h6.19l1.89-5.87,1.95,5.87h6.14l-5,3.64,2,6-5.07-3.65-5,3.65ZM920.58,1080.76l1.55-4.91-4.08-3h5l1.63-5,1.56,5h5.17l-4.12,3,1.5,4.92-4.15-3Zm6-19.81,1.47-4.76-4.18-3h5.2l1.62-5,1.51,5h5.07l-4.07,3,1.61,4.84-4.2-3-4,3Zm-20.21-34.24.85-2.81-2.44-1.69h3l1-2.87.89,2.87h2.9l-2.37,1.73.95,2.77-2.38-1.77-2.37,1.77ZM861.7,1058l1.2-3.91-3.27-2.44h4.17l1.14-4,1.27,4h4.13l-3.32,2.47,1.26,3.88-3.29-2.43Zm22.51-15.5,1.91-5.92-4.85-3.63h6.12l2-5.87,1.85,5.87h6.09l-4.86,3.63,1.91,5.92-5-3.68-5.12,3.68ZM866.69,959l1.95-5.86-5-3.61h6.18l1.9-5.9,2,5.9h6.12l-5,3.65,1.88,5.82-5-3.64-5,3.64Zm-2.62-32.74c2.62-.35,4.52-3.27,4.2-6.53s-2.85-5.62-5.71-5.27-4.67,3.21-4.28,6.5,3,5.62,5.79,5.31Zm31.78.68c-.12-2.1-.34-6.17-2.4-7.75a6.41,6.41,0,0,0,2.56-5.28,6.05,6.05,0,0,0-6.34-5.51l-10.94.75,1.19,18.94,3.41-.32-.48-7,7.51-.51c1.91,1.86,2.19,5.1,2.4,6.85Zm212.39,29.28,3.33,1.45c1.35-3,.31-6.36-2.14-7.46s-5.63.43-6.89,3.48-.49,6.38,2.14,7.44a4.75,4.75,0,0,0,5.37-1.19l-2.84-1.3,1-2.42Zm6.66,2.9-.11.24-3.78,8.4-2.3-1.12,1-2.32a8.14,8.14,0,0,1-6.44.07c-4.28-1.86-6-7.29-4-12.09s7.21-7.13,11.5-5.26,6.1,7.24,4.12,12.08Zm-49.46-9.31c.69-2,1.91-5.92.57-8.1a6,6,0,0,0,4.26-3.94,5.89,5.89,0,0,0-3.79-7.46L1056,927l-5.87,17.95,3.41,1,2.14-6.65,7,2.26.09,0c1.06,2.4.09,5.48-.48,7.22l3.08,1Zm-182.82-32.5,7.28-.47a2.55,2.55,0,0,0,2.22-2.65,2.26,2.26,0,0,0-2.45-2.22l-7.37.39.32,4.95ZM907.27,923l5.14-.13a5,5,0,0,0,5-5.19v-1.7a5.07,5.07,0,0,0-5.08-5l-5.23.13.16,11.85Zm20.44,3.36,17.11.59.18-3.56-13.72-.48.15-4.79,10.86.27v-3.2l-10.69-.41V911l13.07.43v-3.56l-16.17-.57-.79,19Zm24.18,1,3.24.28,1.12-12.92,2.52,13.23,3.1.28,4.83-12.6-1.11,12.92,3.17.31,1.67-18.9-4.6-.39-5,12.59-2.61-13.27-4.76-.39-1.57,18.86ZM991,931.7l14.18,2.38.39-3.18-10.7-1.81.72-4.25,8.88,1.51.4-3.24-8.65-1.48.4-3,10.46,1.81.4-3.21L994,914.89l-3,16.81Zm42.15-2.3,7,1.86a2.26,2.26,0,0,0,2.84-1.74,2.44,2.44,0,0,0-1.65-3l-7-1.81-1.12,4.67Zm23.63,6.54,7,2.22a2.48,2.48,0,0,0,3-1.63,2.31,2.31,0,0,0-1.59-3l-6.9-2.2-1.49,4.63ZM1082.17,952c2.69,1.07,5.62-.75,6.82-3.79s0-6.34-2.54-7.34-5.71.76-6.89,3.85.16,6.34,2.61,7.28Zm43.11,10.82,6.5,3.21A2.37,2.37,0,0,0,1135,965a2.45,2.45,0,0,0-1-3.25l-6.65-3.24-2.07,4.35Zm13.56,18.74,14.89,8.36,1.59-3.05-11.89-6.77,2.29-4.24,9.44,5.34,1.58-2.93-9.35-5.22,1.9-3.37,11.18,6.42,1.9-3-14.26-8-9.27,16.52Zm27.64,9.24c-1,1.54,0,3.37,2.23,4.84s3.8,1.34,4.52.39c2-3.33-9.83-8-6.18-13.68,3.08-4.86,8.56-1.1,10.62.21s5.31,4.71,2.77,8.59l-3.49-2.25c1.19-1.63,0-3.34-2-4.36-1.74-1.27-3.17-1.78-4.2,0-1.82,2.58,10,7.49,6.26,13.19-2.46,4.16-7.13,2.3-10.14.41-2.77-1.72-6.58-5.68-4.13-9.6l3.72,2.26Zm20.29,13.38c-1.18,1.51-.31,3.37,1.91,5s3.88,1.67,4.59.63c2.14-3.08-9.58-8.51-5.46-13.95,3.4-4.7,8.72-.63,10.62.73s5,5,2.22,8.75l-3.25-2.42c1-1.63,0-3.29-1.83-4.6s-2.93-1.78-4.11-.14c-1.91,2.48,9.43,8.12,5.62,13.54-2.93,4-7.53,2-10.31-.16-2.61-1.83-6.33-5.94-3.56-9.78l3.56,2.44Zm21.33,19c2.22,1.82,5.62,1.11,7.68-1.5s1.74-6-.31-7.73c-2.22-1.79-5.47-1.11-7.53,1.51-2.22,2.57-2.06,6.06.16,7.72Zm-76.32-45.33c.93-1.89,2.73-5.54,1.77-7.92a5.94,5.94,0,0,0,2.19-11.21l-9.59-4.84-8.64,16.8,3.09,1.54,3.1-6.34,6.73,3.45,0,0c.71,2.55-.72,5.42-1.46,7l2.78,1.51Zm74.1,48.14c3.71,2.93,9.27,2,12.51-2.09s2.94-9.79-.7-12.69-9.28-2-12.53,2.11S1202.23,1023.07,1205.88,1026ZM1081,955.36c4.44,1.58,9.43-1,11.25-5.87s-.15-10.22-4.59-11.85-9.59,1-11.34,5.79.32,10.22,4.68,11.93Zm-54-16.61,3.33.92,1.91-6.79,7.2,1.83a6,6,0,0,0,7.37-4.24,6.21,6.21,0,0,0-4.28-7.29l-10.45-2.7-5.08,18.27Zm-123-12.21,8.8-.19a8.14,8.14,0,0,0,8.09-8.28l-.16-2.71a8.17,8.17,0,0,0-8.25-8l-8.79.19Zm-39.46,3.13c4.6-.55,7.93-5.18,7.21-10.37-.56-5.15-4.83-8.91-9.51-8.33s-8,5.23-7.21,10.39c.55,5.18,4.83,8.91,9.51,8.31Z" fill="#424242" fill-rule="evenodd"/><rect width="2048" height="2048" fill="none"/></svg>