<?xml version="1.0" encoding="UTF-8"?>
<!DOCTYPE svg PUBLIC "-//W3C//DTD SVG 1.1//EN" "http://www.w3.org/Graphics/SVG/1.1/DTD/svg11.dtd">
<!-- Creator: CorelDRAW -->
<svg xmlns="http://www.w3.org/2000/svg" xml:space="preserve" width="2048px" height="2048px" style="shape-rendering:geometricPrecision; text-rendering:geometricPrecision; image-rendering:optimizeQuality; fill-rule:evenodd; clip-rule:evenodd"
viewBox="0 0 2048 2048"
 xmlns:xlink="http://www.w3.org/1999/xlink">
 <defs>
  <style type="text/css">
   <![CDATA[
    .fil1 {fill:none}
    .fil0 {fill:#424242}
   ]]>
  </style>
 </defs>
 <g id="Layer_x0020_1">
  <metadata id="CorelCorpID_0Corel-Layer"/>
  <path class="fil0" d="M255.999 562.744l1536 0 0 90.1548 -834.558 0 0 68.8252 834.558 0 0 68.9965 -834.558 0 0 68.9292 834.558 0 0 68.8914 -834.558 0 0 68.8288 834.558 0 0 69.0107 -1536 0 0 -503.637zm68.5004 66.8823l6 18.3508 19.1953 0 -15.5433 11.2465 5.87835 18.2291 -15.5303 -11.2465 -15.5445 11.2465 6.08386 -18.2291 -15.5646 -11.2465 19.0288 0 5.99646 -18.3508zm0 80.5501l6 18.2303 19.1953 0 -15.5433 11.2465 5.87835 18.2469 -15.5303 -11.2642 -15.5445 11.2642 6.08386 -18.2469 -15.5646 -11.2465 19.0288 0 5.99646 -18.2303zm0 80.6174l6 18.1429 19.1953 0 -15.5433 11.2642 5.87835 18.3165 -15.5303 -11.3504 -15.5445 11.3504 6.08386 -18.3165 -15.5646 -11.2642 19.0288 0 5.99646 -18.1429zm0 80.4473l6 18.2291 19.1953 0 -15.5433 11.2642 5.87835 18.2291 -15.5303 -11.2465 -15.5445 11.2465 6.08386 -18.2291 -15.5646 -11.2642 19.0288 0 5.99646 -18.2291zm0 80.53l6 18.3165 19.1953 0 -15.5433 11.1791 5.87835 18.2303 -15.5303 -11.2665 -15.5445 11.2665 6.08386 -18.2303 -15.5646 -11.1791 19.0288 0 5.99646 -18.3165zm56.1201 -279.669l5.72481 18.2291 19.3169 0 -15.4606 11.2819 5.80985 18.2114 -15.391 -11.2465 -15.4606 11.2465 5.82638 -18.2114 -15.4949 -11.2819 19.2496 0 5.87953 -18.2291zm0 80.5134l5.72481 18.163 19.3169 0 -15.4606 11.3504 5.80985 18.1288 -15.391 -11.0622 -15.4606 11.0622 5.82638 -18.1288 -15.4949 -11.3504 19.2496 0 5.87953 -18.163zm0 80.5501l5.72481 18.2303 19.3169 0 -15.4606 11.2465 5.80985 18.2291 -15.391 -11.2465 -15.4606 11.2465 5.82638 -18.2291 -15.4949 -11.2465 19.2496 0 5.87953 -18.2303zm0 80.6174l5.72481 18.1606 19.3169 0 -15.4606 11.2488 5.80985 18.1429 -15.391 -11.263 -15.4606 11.263 5.82638 -18.1429 -15.4949 -11.2488 19.2496 0 5.87953 -18.1606zm56.6587 -284.157l5.99882 18.3508 19.1988 0 -15.5291 11.2465 5.99646 18.2291 -15.665 -11.2465 -15.3567 11.2465 5.89489 -18.2291 -15.5634 -11.2465 19.1469 0 5.87835 -18.3508zm0 80.5501l5.99882 18.2303 19.1988 0 -15.5291 11.2465 5.99646 18.2469 -15.665 -11.2642 -15.3567 11.2642 5.89489 -18.2469 -15.5634 -11.2465 19.1469 0 5.87835 -18.2303zm0 80.6174l5.99882 18.1429 19.1988 0 -15.5291 11.2642 5.99646 18.3165 -15.665 -11.3504 -15.3567 11.3504 5.89489 -18.3165 -15.5634 -11.2642 19.1469 0 5.87835 -18.1429zm0 80.4473l5.99882 18.2291 19.1988 0 -15.5291 11.2642 5.99646 18.2291 -15.665 -11.2465 -15.3567 11.2465 5.89489 -18.2291 -15.5634 -11.2642 19.1469 0 5.87835 -18.2291zm0 80.53l5.99882 18.3165 19.1988 0 -15.5291 11.1791 5.99646 18.2303 -15.665 -11.2665 -15.3567 11.2665 5.89489 -18.2303 -15.5634 -11.1791 19.1469 0 5.87835 -18.3165zm56.1532 -279.669l5.89371 18.2291 19.3028 0 -15.6307 11.2819 5.99646 18.2114 -15.5622 -11.2465 -15.4772 11.2465 5.99646 -18.2114 -15.6473 -11.2819 19.2154 0 5.9126 -18.2291zm0 80.5134l5.89371 18.163 19.3028 0 -15.6307 11.3504 5.99646 18.1288 -15.5622 -11.0622 -15.4772 11.0622 5.99646 -18.1288 -15.6473 -11.3504 19.2154 0 5.9126 -18.163zm0 80.5501l5.89371 18.2303 19.3028 0 -15.6307 11.2465 5.99646 18.2291 -15.5622 -11.2465 -15.4772 11.2465 5.99646 -18.2291 -15.6473 -11.2465 19.2154 0 5.9126 -18.2303zm0 80.6174l5.89371 18.1606 19.3028 0 -15.6307 11.2488 5.99646 18.1429 -15.5622 -11.263 -15.4772 11.263 5.99646 -18.1429 -15.6473 -11.2488 19.2154 0 5.9126 -18.1606zm56.8477 -284.157l5.99646 18.3508 19.011 0 -15.5445 11.2465 6.16772 18.2291 -15.6307 -11.2465 -15.5622 11.2465 5.89607 -18.2291 -15.3768 -11.2465 19.1291 0 5.91378 -18.3508zm0 80.5501l5.99646 18.2303 19.011 0 -15.5445 11.2465 6.16772 18.2469 -15.6307 -11.2642 -15.5622 11.2642 5.89607 -18.2469 -15.3768 -11.2465 19.1291 0 5.91378 -18.2303zm0 80.6174l5.99646 18.1429 19.011 0 -15.5445 11.2642 6.16772 18.3165 -15.6307 -11.3504 -15.5622 11.3504 5.89607 -18.3165 -15.3768 -11.2642 19.1291 0 5.91378 -18.1429zm0 80.4473l5.99646 18.2291 19.011 0 -15.5445 11.2642 6.16772 18.2291 -15.6307 -11.2465 -15.5622 11.2465 5.89607 -18.2291 -15.3768 -11.2642 19.1291 0 5.91378 -18.2291zm0 80.53l5.99646 18.3165 19.011 0 -15.5445 11.1791 6.16772 18.2303 -15.6307 -11.2665 -15.5622 11.2665 5.89607 -18.2303 -15.3768 -11.1791 19.1291 0 5.91378 -18.3165zm56.1166 -279.669l5.89607 18.2291 19.1492 0 -15.4606 11.2819 5.79213 18.2114 -15.3768 -11.2465 -15.4583 11.2465 5.79213 -18.2114 -15.4606 -11.2819 19.1291 0 5.99764 -18.2291zm0 80.5134l5.89607 18.163 19.1492 0 -15.4606 11.3504 5.79213 18.1288 -15.3768 -11.0622 -15.4583 11.0622 5.79213 -18.1288 -15.4606 -11.3504 19.1291 0 5.99764 -18.163zm0 80.5501l5.89607 18.2303 19.1492 0 -15.4606 11.2465 5.79213 18.2291 -15.3768 -11.2465 -15.4583 11.2465 5.79213 -18.2291 -15.4606 -11.2465 19.1291 0 5.99764 -18.2303zm0 80.6174l5.89607 18.1606 19.1492 0 -15.4606 11.2488 5.79213 18.1429 -15.3768 -11.263 -15.4583 11.263 5.79213 -18.1429 -15.4606 -11.2488 19.1291 0 5.99764 -18.1606zm56.6611 -284.157l5.99764 18.3508 19.1315 0 -15.4606 11.2465 5.99764 18.2291 -15.6662 -11.2465 -15.3744 11.2465 5.82756 -18.2291 -15.4606 -11.2465 19.1291 0 5.87835 -18.3508zm0 80.5501l5.99764 18.2303 19.1315 0 -15.4606 11.2465 5.99764 18.2469 -15.6662 -11.2642 -15.3744 11.2642 5.82756 -18.2469 -15.4606 -11.2465 19.1291 0 5.87835 -18.2303zm0 80.6174l5.99764 18.1429 19.1315 0 -15.4606 11.2642 5.99764 18.3165 -15.6662 -11.3504 -15.3744 11.3504 5.82756 -18.3165 -15.4606 -11.2642 19.1291 0 5.87835 -18.1429zm0 80.4473l5.99764 18.2291 19.1315 0 -15.4606 11.2642 5.99764 18.2291 -15.6662 -11.2465 -15.3744 11.2465 5.82756 -18.2291 -15.4606 -11.2642 19.1291 0 5.87835 -18.2291zm0 80.53l5.99764 18.3165 19.1315 0 -15.4606 11.1791 5.99764 18.2303 -15.6662 -11.2665 -15.3744 11.2665 5.82756 -18.2303 -15.4606 -11.1791 19.1291 0 5.87835 -18.3165zm56.1367 -279.669l5.91142 18.2291 19.2992 0 -15.5622 11.2819 5.91378 18.2114 -15.5622 -11.2465 -15.4606 11.2465 5.99764 -18.2114 -15.5469 -11.2819 19.1988 0 5.81103 -18.2291zm0 80.5134l5.91142 18.163 19.2992 0 -15.5622 11.3504 5.91378 18.1288 -15.5622 -11.0622 -15.4606 11.0622 5.99764 -18.1288 -15.5469 -11.3504 19.1988 0 5.81103 -18.163zm0 80.5501l5.91142 18.2303 19.2992 0 -15.5622 11.2465 5.91378 18.2291 -15.5622 -11.2465 -15.4606 11.2465 5.99764 -18.2291 -15.5469 -11.2465 19.1988 0 5.81103 -18.2303zm0 80.6174l5.91142 18.1606 19.2992 0 -15.5622 11.2488 5.91378 18.1429 -15.5622 -11.263 -15.4606 11.263 5.99764 -18.1429 -15.5469 -11.2488 19.1988 0 5.81103 -18.1606zm56.8465 -284.157l5.98229 18.3508 19.1469 0 -15.4606 11.2465 5.80985 18.2291 -15.4784 -11.2465 -15.3768 11.2465 5.81221 -18.2291 -15.4772 -11.2465 19.1291 0 5.9126 -18.3508zm0 80.5501l5.98229 18.2303 19.1469 0 -15.4606 11.2465 5.80985 18.2469 -15.4784 -11.2642 -15.3768 11.2642 5.81221 -18.2469 -15.4772 -11.2465 19.1291 0 5.9126 -18.2303zm0 80.6174l5.98229 18.1429 19.1469 0 -15.4606 11.2642 5.80985 18.3165 -15.4784 -11.3504 -15.3768 11.3504 5.81221 -18.3165 -15.4772 -11.2642 19.1291 0 5.9126 -18.1429zm0 80.4473l5.98229 18.2291 19.1469 0 -15.4606 11.2642 5.80985 18.2291 -15.4784 -11.2465 -15.3768 11.2465 5.81221 -18.2291 -15.4772 -11.2642 19.1291 0 5.9126 -18.2291zm0 80.53l5.98229 18.3165 19.1469 0 -15.4606 11.1791 5.80985 18.2303 -15.4784 -11.2665 -15.3768 11.2665 5.81221 -18.2303 -15.4772 -11.1791 19.1291 0 5.9126 -18.3165zm56.1343 -279.669l5.79449 18.2291 19.2307 0 -15.3732 11.2819 5.72481 18.2114 -15.3768 -11.2465 -15.6307 11.2465 5.96457 -18.2114 -15.3591 -11.2819 19.0288 0 5.99646 -18.2291zm0 80.5134l5.79449 18.163 19.2307 0 -15.3732 11.3504 5.72481 18.1288 -15.3768 -11.0622 -15.6307 11.0622 5.96457 -18.1288 -15.3591 -11.3504 19.0288 0 5.99646 -18.163zm0 80.5501l5.79449 18.2303 19.2307 0 -15.3732 11.2465 5.72481 18.2291 -15.3768 -11.2465 -15.6307 11.2465 5.96457 -18.2291 -15.3591 -11.2465 19.0288 0 5.99646 -18.2303zm0 80.6174l5.79449 18.1606 19.2307 0 -15.3732 11.2488 5.72481 18.1429 -15.3768 -11.263 -15.6307 11.263 5.96457 -18.1429 -15.3591 -11.2488 19.0288 0 5.99646 -18.1606zm56.6622 -284.157l6.08268 18.3508 19.0465 0 -15.4606 11.2465 5.97874 18.2291 -15.6473 -11.2465 -15.3744 11.2465 5.80985 -18.2291 -15.4606 -11.2465 19.1291 0 5.89607 -18.3508zm0 80.5501l6.08268 18.2303 19.0465 0 -15.4606 11.2465 5.97874 18.2469 -15.6473 -11.2642 -15.3744 11.2642 5.80985 -18.2469 -15.4606 -11.2465 19.1291 0 5.89607 -18.2303zm0 80.6174l6.08268 18.1429 19.0465 0 -15.4606 11.2642 5.97874 18.3165 -15.6473 -11.3504 -15.3744 11.3504 5.80985 -18.3165 -15.4606 -11.2642 19.1291 0 5.89607 -18.1429zm0 80.4473l6.08268 18.2291 19.0465 0 -15.4606 11.2642 5.97874 18.2291 -15.6473 -11.2465 -15.3744 11.2465 5.80985 -18.2291 -15.4606 -11.2642 19.1291 0 5.89607 -18.2291zm0 80.53l6.08268 18.3165 19.0465 0 -15.4606 11.1791 5.97874 18.2303 -15.6473 -11.2665 -15.3744 11.2665 5.80985 -18.2303 -15.4606 -11.1791 19.1291 0 5.89607 -18.3165zm903.164 183.503l0 68.9292 -1536 0 0 -68.9292 1536 0zm0 137.926l0 68.8075 -1536 0 0 -68.8075 1536 0zm0 137.737l0 74.3197 -1536 0 0 -74.3197 1536 0z"/>
 </g>
 <rect class="fil1" width="2048" height="2048"/>
</svg>
