<?xml version="1.0" encoding="UTF-8"?>
<!DOCTYPE svg PUBLIC "-//W3C//DTD SVG 1.1//EN" "http://www.w3.org/Graphics/SVG/1.1/DTD/svg11.dtd">
<!-- Creator: CorelDRAW -->
<svg xmlns="http://www.w3.org/2000/svg" xml:space="preserve" width="2048px" height="2048px" style="shape-rendering:geometricPrecision; text-rendering:geometricPrecision; image-rendering:optimizeQuality; fill-rule:evenodd; clip-rule:evenodd"
viewBox="0 0 2048 2048"
 xmlns:xlink="http://www.w3.org/1999/xlink">
 <defs>
 
 </defs>
 <g id="Layer_x0020_1">
  <metadata id="CorelCorpID_0Corel-Layer"/>
  <path class="fil0" d="M255.999 562.744l1536 0 0 230.628 -1536 0 0 -230.628zm383.018 415.786c0.256299,0.046063 0.512599,0.090945 0.760631,0.141732 -0.245669,-0.0507874 -0.506693,-0.0956694 -0.760631,-0.141732zm-1.17992 3.75118c0.347244,0.0637796 0.690945,0.12874 1.01929,0.200788 -0.322441,-0.0720473 -0.66378,-0.135827 -1.01929,-0.200788zm-8.25709 -0.66378c0.00708662,0 0.0129921,0 0.0212599,0 -0.367323,0 -0.733465,0.00944883 -1.09843,0.0165354 0.357874,-0.00708662 0.715749,-0.0165354 1.07717,-0.0165354zm4.0689 0.153543c-0.42874,-0.0295276 -0.859843,-0.0578741 -1.29921,-0.080315 0.445276,0.0188977 0.871654,0.0507874 1.29921,0.080315zm2.97402 0.317717c-0.563386,-0.080315 -1.14803,-0.151181 -1.7563,-0.211417 0.607087,0.0602363 1.19173,0.12874 1.7563,0.211417zm-21.2646 19.4788c0.196063,-0.080315 0.361418,-0.0933072 0.565748,-0.0933072 -0.197244,0 -0.387402,0.0389764 -0.565748,0.0933072zm-2.56654 -25.0512c0.0377953,0.161811 0.129921,0.33189 0.285827,0.457087 0.274016,0.270473 0.591733,0.317717 0.822048,0.132284 0.307087,0.408662 0.949607,1.21181 1.50236,1.55197 0.407481,0.230315 1.04646,0.464174 1.56851,0.405118 0.0885827,-0.0200788 0.144095,-0.0874016 0.222047,-0.121654l0.115748 0.269292c-0.168898,0.0484252 -0.349607,0.0933072 -0.511418,0.144095 -0.232677,0.056693 -0.348425,0.28937 -0.290551,0.522048 0.0578741,0.174803 0.348425,0.28937 0.522048,0.230315 0,0 0.33189,0.458268 0.648426,1.05945l-0.0673229 -0.0141732 -0.464174 0.81378 0.928347 0.347244 0.0271654 -0.0377953c0.157087,0.415748 0.264567,0.734646 0.264567,0.734646 2.00315,-0.718111 5.68819,-1.25315 9.64725,-1.3689 -3.74174,0.112205 -7.33229,0.602363 -9.41457,1.31221 -0.290551,0.115748 -0.52441,0.348425 -0.581103,0.578741 -0.115748,0.583465 0.523229,1.04646 1.56851,1.39606 0.843308,0.210236 2.44252,0.48189 4.33937,0.69567l-12.4736 0 0 9.58111 4.47284 0c-0.871654,0 -1.62638,0.523229 -1.62638,1.10197 0,0.418111 0.400394,0.80315 0.948426,0.987402l-0.0767717 0c0.0366142,0.00708662 0.0767717,0.0141732 0.115748,0.0177165 0.0472441,0.0141732 0.0992127,0.0165354 0.15,0.0283465 0.687402,0.237402 1.14095,0.761812 1.3252,1.40906 0.0614174,0.220866 0.0944883,0.451181 0.0944883,0.692127 0,0.916536 -0.625985,1.83071 -1.53662,2.13189 -0.588189,0.193701 -1.02047,0.651969 -1.02047,1.17874 0,0.69567 0.754725,1.27677 1.62638,1.27677l27.3673 0c0.988583,0 1.68543,-0.581103 1.68543,-1.27677 0,-0.520867 -0.390945,-0.976772 -0.999213,-1.17284 0.0212599,0.00354331 0.0484252,0.00354331 0.0696851,0.0106299 -0.929528,-0.28937 -1.56851,-1.16102 -1.56851,-2.14843 0,-0.927166 0.628347,-1.7374 1.52362,-2.12126 0.607087,-0.174803 1.03228,-0.576378 1.03228,-1.01339 0,-0.578741 -0.755906,-1.10197 -1.68425,-1.10197l4.64764 0 0 -9.58111 -12.6957 0c1.8874,-0.21378 3.48544,-0.485433 4.32992,-0.69567 1.10315,-0.349607 1.74213,-0.812599 1.62638,-1.39606 -0.116929,-0.230315 -0.349607,-0.462992 -0.638977,-0.578741 -0.19252,-0.0637796 -0.413386,-0.125197 -0.627166,-0.185433 0.240945,0.0637796 0.512599,0.114567 0.742914,0.185433 0,0 0.158268,-0.36378 0.346063,-0.758268l0.00236221 0.00354331 0.930709 -0.174803 -0.387402 -0.831497c0.37441,-0.640158 0.618898,-1.08543 0.618898,-1.08543 0.173622,0.0590552 0.465355,-0.0555119 0.523229,-0.230315 0.0578741,-0.232677 -0.115748,-0.465355 -0.290551,-0.522048 -0.264567,-0.0814961 -0.551575,-0.158268 -0.83504,-0.23504 0.153543,0.0425197 0.337796,0.0744095 0.485433,0.11811l0.0897638 -0.220866c0.0318898,0.00944883 0.0507874,0.0389764 0.0850394,0.046063 0.523229,0.0590552 1.16339,-0.174803 1.56969,-0.405118 0.536221,-0.329528 1.09724,-1.09252 1.37953,-1.51181 0.201969,0.0933072 0.480709,0.0590552 0.711024,-0.172441 0.17126,-0.137008 0.236221,-0.323622 0.245669,-0.497244 0.155906,-0.199606 0.594095,-0.750001 0.975591,-1.13032 0.348425,-0.288189 1.10315,-0.522048 1.10315,-0.522048 0,-0.115748 -0.464174,-0.464174 -0.929528,-0.464174 -0.105118,0 -0.205512,0.0330709 -0.303544,0.0625985 0.146457,-0.236221 0.291733,-0.480709 0.361418,-0.64252 0.175984,-0.466536 0.175984,-1.3937 0,-1.8 -0.174803,-0.462992 -0.231496,-1.15984 -0.696851,-1.74331 -0.465355,-0.636615 -1.04646,-1.39134 -1.9748,-1.79764 -0.511418,-0.257481 -1.35236,-0.473622 -2.15551,-0.659056l0.239764 -0.19252c0.207874,-0.068504 0.392126,-0.0956694 0.520867,-0.0200788 -0.174803,-0.522048 -0.349607,-0.929528 -0.755906,-1.16102 -0.794883,-0.480709 -1.95354,-0.264567 -3.24685,0.43937 -0.812599,-0.282284 -1.63347,-0.572835 -1.86614,-0.672048 -0.348425,-0.173622 -1.62638,-0.636615 -2.38229,-0.753544 -0.754725,-0.0578741 -1.22008,0 -1.85906,0 -0.318898,-0.0011811 -1.05473,0.056693 -1.79291,0.114567 -0.172441,-0.451181 -0.396851,-0.827953 -0.657875,-1.1185 0.119291,-0.135827 0.207874,-0.282284 0.266929,-0.448819l0.673229 0 0 -0.928347 -0.692127 0c-0.0283465,-0.0708662 -0.0744095,-0.127559 -0.113386,-0.19252 -0.0472441,-0.0779528 -0.0944883,-0.15 -0.155906,-0.218504 -0.0578741,-0.0661418 -0.121654,-0.121654 -0.191339,-0.177165 -0.0708662,-0.0543308 -0.144095,-0.100394 -0.225591,-0.142913 -0.0755906,-0.0401575 -0.146457,-0.0779528 -0.229134,-0.105118 -0.00708662,-0.00236221 -0.0129921,-0.00590552 -0.0200788,-0.00944883l0 -1.30276 1.04646 0 0 -0.928347 -1.04646 0 0 -0.929528 -0.987402 0 0 0.929528 -0.987402 0 0 0.928347 0.987402 0 0 1.31575c-0.0862205,0.0283465 -0.159449,0.0732284 -0.236221,0.115748 -0.0602363,0.0318898 -0.114567,0.068504 -0.167717,0.108662 -0.0791339,0.0590552 -0.153543,0.116929 -0.218504,0.190158 -0.0625985,0.068504 -0.10748,0.15 -0.155906,0.229134 -0.0366142,0.0625985 -0.0779528,0.11811 -0.105118,0.184252 0,0.00236221 -0.0011811,0.00236221 -0.0011811,0.00472441l-0.625985 0 0 0.928347 0.609449 0c0.0507874,0.154725 0.12874,0.290551 0.230315,0.415748 -0.274016,0.303544 -0.512599,0.700394 -0.692127,1.18583 -0.330709,-0.0188977 -0.629528,-0.0318898 -0.786615,-0.0318898 -0.465355,0 -1.85906,-0.174803 -2.67284,-0.174803 -0.581103,0.056693 -1.51063,0.348425 -1.85906,0.464174 -0.4063,0.0578741 -1.04646,0.0578741 -1.51181,0.232677 -0.464174,0.173622 -0.928347,0.462992 -0.928347,0.462992 0,0 -0.170079,0.0413386 -0.4063,0.0980316 -1.13268,-0.53504 -2.13543,-0.643701 -2.84764,-0.21378 -0.407481,0.231496 -0.582284,0.638977 -0.755906,1.16102 0.101575,-0.0649607 0.250394,-0.0531496 0.416929,-0.00826772 -0.242126,0.102756 -0.416929,0.184252 -0.416929,0.184252 0,0 -1.74331,0.522048 -2.55709,0.927166 -0.812599,0.464174 -1.74213,0.987402 -2.32323,2.49685 -0.465355,1.16221 0.217323,2.64449 0.511418,3.19488 -0.517323,0.00472441 -0.976772,0.346063 -0.976772,0.461811 0,0 0.81378,0.233858 1.10315,0.522048 0.418111,0.419292 0.90945,1.04291 1.05118,1.17047zm16.7882 179.805c-2.37756,0 -4.52599,-0.587008 -6.13347,-1.3937l12.45 0c-1.62047,0.83504 -3.88111,1.3937 -6.31654,1.3937zm-14.1638 -16.226c0.162992,0.046063 0.330709,0.0838583 0.507874,0.0838583 -0.138189,0 -0.338977,-0.0377953 -0.507874,-0.0838583zm32.9894 14.6303l0 -9.3189 0.115748 0c-2.55709,0 -4.64764,-1.91575 -4.64764,-4.29685 0,-0.348425 0.056693,-0.699213 0.173622,-1.04646 -0.232677,0.115748 -0.464174,0.115748 -0.755906,0.115748 0.988583,0 1.68543,-0.578741 1.68543,-1.27559 0,-0.755906 -0.698032,-1.33583 -1.68543,-1.33583l-27.3673 0c-0.871654,0 -1.62638,0.579922 -1.62638,1.33583 0,0.518504 0.418111,0.968505 0.990946,1.16575 0.056693,0.346063 0.230315,0.634252 0.230315,1.04055 0,2.3811 -2.09291,4.29685 -4.64882,4.29685l0.0578741 0 0 9.33662c-0.0933072,0.046063 -0.200788,0.0779528 -0.290551,0.126378 -1.68543,0.870473 -4.00866,1.45158 -6.50788,1.45158l0 3.94843 0 3.94725 0 3.89055c2.49921,0 4.82244,-0.522048 6.50788,-1.3937 -1.68543,0.871654 -4.00866,1.45158 -6.50788,1.45158l0 3.94725 0 3.95079c2.49921,0 4.82244,-0.584646 6.50788,-1.45512 1.62638,-0.869292 3.83504,-1.33347 6.33308,-1.33347 2.38229,0 4.53189,0.464174 6.21733,1.27677 1.62756,0.870473 3.89292,1.51181 6.39213,1.51181 2.49803,0 4.82126,-0.584646 6.44882,-1.45512 1.68543,-0.810237 3.95079,-1.33347 6.45,-1.33347 2.44016,0 4.64764,0.523229 6.2752,1.33347 1.68425,0.870473 3.89292,1.45512 6.45,1.45512l0 -3.95079 0 -4.00512 0 -3.89055 0 -3.94725 0 -3.94843c-2.49921,0 -4.76575,-0.581103 -6.45,-1.45158 -0.106299,-0.0519685 -0.236221,-0.0956694 -0.348425,-0.144095zm231.66 -188.61c0.4063,0 0.754725,-0.348425 0.754725,-0.69567 0,-0.4063 -0.348425,-0.698032 -0.754725,-0.698032 -0.407481,0 -0.757087,0.292914 -0.757087,0.698032 0,0.347244 0.349607,0.69567 0.757087,0.69567zm2.32441 0.754725c0.4063,0 0.698032,-0.348425 0.698032,-0.696851 0,-0.4063 -0.291733,-0.753544 -0.698032,-0.753544 -0.408662,-0.0011811 -0.757087,0.347244 -0.757087,0.753544 0,0.348425 0.348425,0.696851 0.757087,0.696851zm-4.70788 -0.696851c0.408662,0 0.757087,-0.28937 0.757087,-0.698032 0,-0.348425 -0.348425,-0.69567 -0.757087,-0.69567 -0.4063,0 -0.754725,0.347244 -0.754725,0.69567 0,0.408662 0.348425,0.698032 0.754725,0.698032zm6.50906 2.2063c0.464174,0 0.754725,-0.288189 0.754725,-0.698032 0,-0.405118 -0.290551,-0.696851 -0.754725,-0.696851 -0.4063,0 -0.696851,0.291733 -0.696851,0.696851 0,0.409843 0.290551,0.699213 0.696851,0.698032zm1.85906 -0.4063c0.464174,0 0.755906,-0.347244 0.755906,-0.754725 0,-0.348425 -0.291733,-0.696851 -0.755906,-0.696851 -0.4063,0 -0.698032,0.348425 -0.698032,0.696851 0,0.4063 0.291733,0.754725 0.698032,0.754725zm4.58977 0.928347c0.466536,0 0.753544,-0.288189 0.753544,-0.69567 0,-0.4063 -0.287008,-0.698032 -0.753544,-0.698032 -0.4063,0 -0.696851,0.291733 -0.696851,0.698032 0,0.407481 0.290551,0.69567 0.696851,0.69567zm-2.20866 -1.04528c0.407481,0 0.757087,-0.28937 0.757087,-0.696851 0,-0.405118 -0.350788,-0.696851 -0.757087,-0.696851 -0.407481,0 -0.753544,0.291733 -0.753544,0.696851 0,0.407481 0.346063,0.696851 0.753544,0.696851zm3.89528 3.02008c0.405118,0 0.754725,-0.291733 0.754725,-0.696851 0,-0.4063 -0.349607,-0.69567 -0.754725,-0.69567 -0.407481,0 -0.758268,0.28937 -0.758268,0.69567 0,0.405118 0.350788,0.696851 0.758268,0.696851zm-0.466536 1.91457c0,0.348425 0.349607,0.696851 0.754725,0.696851 0.408662,0 0.757087,-0.348425 0.757087,-0.696851 0,-0.405118 -0.348425,-0.69567 -0.757087,-0.69567 -0.405118,0 -0.754725,0.290551 -0.754725,0.69567zm-21.2079 -6.61772c0.4063,0 0.757087,-0.28937 0.757087,-0.698032 0,-0.348425 -0.350788,-0.69567 -0.757087,-0.69567 -0.407481,0 -0.69567,0.347244 -0.69567,0.69567 0,0.408662 0.288189,0.698032 0.69567,0.698032zm-6.5067 2.2063c0.4063,0 0.754725,-0.288189 0.754725,-0.698032 0,-0.405118 -0.348425,-0.696851 -0.754725,-0.696851 -0.4063,0 -0.755906,0.291733 -0.755906,0.696851 0,0.409843 0.349607,0.699213 0.755906,0.698032zm4.18347 -2.26417c0.4063,0 0.696851,-0.348425 0.696851,-0.69567 0,-0.4063 -0.290551,-0.698032 -0.696851,-0.698032 -0.408662,0 -0.755906,0.292914 -0.755906,0.698032 0,0.347244 0.347244,0.69567 0.755906,0.69567zm-2.32559 0.754725c0.408662,0 0.757087,-0.348425 0.757087,-0.696851 0,-0.4063 -0.349607,-0.753544 -0.757087,-0.753544 -0.4063,-0.0011811 -0.754725,0.347244 -0.754725,0.753544 0,0.348425 0.348425,0.696851 0.754725,0.696851zm10.2319 10.891c3.6378,0.119291 6.92717,0.564567 9.51851,1.2248 -2.63504,-0.657875 -5.90788,-1.10315 -9.51851,-1.2248zm6.22205 4.52008c0.344882,0.0637796 0.68504,0.127559 1.00984,0.200788 -0.32126,-0.0720473 -0.656693,-0.137008 -1.00984,-0.200788zm-13.0358 -0.45c-0.389764,0.0354331 -0.765355,0.0755906 -1.1374,0.11811 0.372048,-0.0425197 0.745276,-0.0826772 1.1374,-0.11811zm-1.47402 0.154725c-0.46063,0.056693 -0.905906,0.116929 -1.33228,0.185433 0.426378,-0.0661418 0.870473,-0.12874 1.33228,-0.185433zm13.2898 0.101575c-0.559843,-0.0791339 -1.14685,-0.15 -1.75158,-0.210236 0.604725,0.0602363 1.19173,0.12874 1.75158,0.210236zm-2.9752 -0.316536c-0.426378,-0.0318898 -0.857481,-0.0578741 -1.29449,-0.080315 0.444095,0.0188977 0.870473,0.0507874 1.29449,0.080315zm-4.06536 -0.153543c0.00708662,0 0.0129921,0 0.0188977,0 -0.308268,0 -0.617717,0.00826772 -0.928347,0.0141732 0.304725,-0.00590552 0.605906,-0.0141732 0.90945,-0.0141732zm-1.59095 0.0236221c-0.392126,0.0129921 -0.779528,0.0330709 -1.16457,0.0531496 0.38504,-0.0200788 0.772442,-0.0401575 1.16457,-0.0531496zm-1.61929 0.0732284c-0.379134,0.022441 -0.747638,0.0531496 -1.11496,0.0814961 0.367323,-0.0283465 0.735827,-0.0590552 1.11496,-0.0814961zm-0.170079 -3.88465c-0.0472441,0.00236221 -0.0980316,0.00354331 -0.145276,0.00708662 0.0472441,-0.00472441 0.0980316,-0.00472441 0.145276,-0.00708662zm5.29843 -0.0744095c-0.611811,-0.0177165 -1.23189,-0.0283465 -1.86024,-0.0283465 0.629528,0 1.24843,0.0106299 1.86024,0.0283465zm12.5622 23.8205c-0.201969,-0.0649607 -0.421654,-0.101575 -0.65315,-0.101575 0.271654,0 0.440552,0.00826772 0.65315,0.101575zm-31.9122 -28.4362c0,0.464174 0.0980316,0.892914 0.217323,1.31575l-0.0437008 0.252756c-0.173622,-0.232677 -0.403937,-0.348425 -0.754725,-0.348425 -0.464174,0 -0.928347,0.348425 -0.928347,0.464174 0,0 0.812599,0.233858 1.10197,0.522048 0.398032,0.399213 0.861024,0.980316 1.02874,1.14803 0.0165354,0.170079 0.0874016,0.348425 0.250394,0.479528 0.347244,0.288189 0.692127,0.346063 0.869292,0.11811 0.302362,0.402756 0.955513,1.22244 1.51417,1.56614 0.407481,0.230315 1.04528,0.464174 1.56969,0.405118 0.0744095,-0.0153543 0.120473,-0.0767717 0.188977,-0.105118l0.0956694 0.266929c-0.151181,0.0448819 -0.312992,0.0850394 -0.458268,0.129921 -0.233858,0.056693 -0.350788,0.28937 -0.292914,0.522048 0.0590552,0.174803 0.349607,0.28937 0.522048,0.230315 0,0 0.33189,0.458268 0.647245,1.05945l-0.0661418 -0.0141732 -0.461811 0.81378 0.928347 0.347244 0.0248032 -0.0377953c0.159449,0.415748 0.264567,0.734646 0.264567,0.734646 0.905906,-0.323622 2.16024,-0.609449 3.62126,-0.83504 -1.33228,0.210236 -2.49685,0.473622 -3.38859,0.778347 -0.28937,0.115748 -0.582284,0.348425 -0.582284,0.578741 -0.113386,0.583465 0.52441,1.04646 1.56969,1.39606 0.844489,0.210236 2.44134,0.48189 4.34055,0.69567l-12.5327 0 0 9.58111 4.64646 0c-0.928347,0 -1.68307,0.523229 -1.68307,1.10197 0,0.429922 0.419292,0.829134 1.01339,1.00748 0.861024,0.380315 1.54252,1.1941 1.54252,2.12717 0,0.987402 -0.696851,1.85906 -1.62638,2.14843 0.231496,-0.056693 0.466536,-0.115748 0.753544,-0.115748 -0.928347,0 -1.68307,0.581103 -1.68307,1.27795 0,0.69567 0.754725,1.27677 1.68307,1.27677l27.3673 0c0.933072,0 1.68662,-0.581103 1.68662,-1.27677 0,-0.520867 -0.422835,-0.977954 -1.02638,-1.1752 0.0153543,0.00590552 0.0259843,0.00590552 0.0377953,0.0129921 -0.986221,-0.28937 -1.62638,-1.2189 -1.62638,-2.14843 0,-0.240945 0.0366142,-0.473622 0.102756,-0.693308 0.0590552,-0.193701 0.147638,-0.368504 0.252756,-0.53504 0.0129921,-0.022441 0.0188977,-0.046063 0.034252,-0.0673229 0.242126,-0.360236 0.594095,-0.641339 1.0252,-0.801969 0.0696851,-0.0129921 0.141732,-0.0188977 0.205512,-0.0401575 0.0212599,-0.00354331 0.046063,-0.00590552 0.0661418,-0.00944883l-0.0425197 0c0.571654,-0.184252 0.970867,-0.569292 0.970867,-0.987402 0,-0.578741 -0.753544,-1.10197 -1.68662,-1.10197l4.53307 0 0 -9.58111 -12.6378 0c1.88858,-0.21378 3.48544,-0.485433 4.32992,-0.69567 1.10315,-0.349607 1.68543,-0.812599 1.56851,-1.39606 -0.0578741,-0.230315 -0.291733,-0.462992 -0.579922,-0.578741 -0.190158,-0.0637796 -0.411024,-0.122835 -0.623623,-0.185433 0.239764,0.0637796 0.509056,0.114567 0.73819,0.185433 0,0 0.161811,-0.368504 0.349607,-0.764174l0.930709 -0.165354 -0.388583 -0.831497c0.376772,-0.640158 0.618898,-1.08543 0.618898,-1.08543 -0.00354331,-0.00236221 -0.00826772,-0.0011811 -0.0129921,-0.00354331 0.222047,0.0366142 0.48189,-0.0625985 0.537402,-0.226772 0.0555119,-0.232677 -0.11811,-0.465355 -0.291733,-0.522048 -0.31063,-0.0956694 -0.64252,-0.18189 -0.976772,-0.271654 0.188977,0.0531496 0.389764,0.101575 0.569292,0.154725l0.100394 -0.248032c0.0472441,0.0165354 0.080315,0.0614174 0.132284,0.0732284 0.522048,0.0590552 1.16339,-0.174803 1.56969,-0.405118 0.530315,-0.328347 1.08543,-1.07835 1.37008,-1.49882 0.211417,0.0661418 0.445276,0.0318898 0.664961,-0.185433 0.200788,-0.135827 0.279921,-0.317717 0.298819,-0.491339 0.145276,-0.188977 0.592914,-0.748819 0.977954,-1.13622 0.348425,-0.288189 1.10433,-0.522048 1.10433,-0.522048 0.0011811,-0.115748 -0.465355,-0.464174 -0.987402,-0.464174 -0.12874,0 -0.269292,0.0448819 -0.4063,0.115748 0,-0.28937 0.115748,-0.987402 0.115748,-0.987402 0.0437008,-0.196063 0,-0.399213 -0.0826772,-0.602363 -0.129921,-2.48858 -2.0941,-4.44685 -4.56496,-4.44685 -0.814961,0 -1.62874,0.231496 -2.26772,0.578741l1.60158 1.45984c-0.357874,-0.0177165 -0.701575,-0.0141732 -1.02284,0.0212599 0.068504,-0.0956694 0.120473,-0.200788 0.120473,-0.318898 0,-0.4063 -0.349607,-0.754725 -0.757087,-0.754725 -0.4063,0 -0.754725,0.348425 -0.754725,0.754725 0,0.0625985 0.022441,0.120473 0.0437008,0.175984 -0.179528,-0.10748 -0.361418,-0.210236 -0.584646,-0.305906 -0.0874016,-1.85197 -1.95473,-3.29528 -4.28268,-3.29528 -1.0441,0 -1.97599,0.290551 -2.73071,0.753544l2.94095 1.80354c-0.0129921,0 -0.0236221,-0.00236221 -0.0366142,-0.00236221 -1.05709,0 -2.03977,0.114567 -2.88662,0.311811 0.0602363,-0.285827 0.0992127,-0.579922 0.0992127,-0.892914 0,-1.18228 -0.431103,-2.20394 -1.08425,-2.77205 0.126378,-0.140551 0.22441,-0.301181 0.288189,-0.480709l0.679134 0 0 -0.986221 -0.698032 0 -0.00236221 -0.0011811c-0.00354331,-0.011811 -0.011811,-0.0200788 -0.0188977,-0.0330709 -0.144095,-0.317717 -0.407481,-0.564567 -0.741733,-0.692127 -0.0389764,-0.0188977 -0.0767717,-0.0295276 -0.11811,-0.0437008 -0.0165354,-0.00472441 -0.0307087,-0.0153543 -0.046063,-0.0188977l0 -1.30158 0.987402 0 0.056693 0 0 -0.986221 -0.056693 0 -0.987402 0 0 -0.929528 -0.988583 0 0 0.929528 -0.987402 0 0 0.986221 0.987402 0 0 1.27323c-0.212599,0.0791339 -0.394488,0.199606 -0.550394,0.356693 -0.00708662,0.00354331 -0.011811,0.00826772 -0.0153543,0.011811 -0.103937,0.109843 -0.187795,0.229134 -0.256299,0.36378 -0.0153543,0.0307087 -0.0425197,0.0531496 -0.0543308,0.0850394l-0.636615 0 0 0.986221 0.615355 0c0.0590552,0.168898 0.145276,0.316536 0.257481,0.45 -0.656693,0.562205 -1.10197,1.60158 -1.10197,2.80276 0,0.308268 0.0401575,0.601182 0.0992127,0.887009 -0.831497,-0.191339 -1.78701,-0.305906 -2.82992,-0.305906 -0.0850394,0 -0.161811,0.0141732 -0.244488,0.0141732l2.9752 -1.81536c-0.699213,-0.462992 -1.68543,-0.753544 -2.67402,-0.753544 -2.34803,0 -4.2874,1.46811 -4.34764,3.34252 -0.206693,0.0933072 -0.357874,0.198425 -0.529134,0.301181 0.0318898,-0.068504 0.0543308,-0.141732 0.0543308,-0.218504 0,-0.4063 -0.348425,-0.754725 -0.754725,-0.754725 -0.407481,0 -0.757087,0.348425 -0.757087,0.754725 0.0011811,0.115748 0.0507874,0.218504 0.114567,0.311811 -0.323622,-0.0307087 -0.673229,-0.0307087 -1.0441,-0.00590552l1.62638 -1.46811c-0.69567,-0.347244 -1.45276,-0.578741 -2.26299,-0.578741 -2.55827,0 -4.65118,2.08937 -4.65118,4.70079zm-0.754725 -2.26299c0.4063,0 0.754725,-0.291733 0.754725,-0.696851 0,-0.4063 -0.349607,-0.69567 -0.754725,-0.69567 -0.4063,0 -0.754725,0.28937 -0.754725,0.69567 0,0.405118 0.348425,0.696851 0.754725,0.696851zm3.89292 -3.02008c0.4063,0 0.753544,-0.28937 0.753544,-0.696851 0,-0.405118 -0.347244,-0.696851 -0.753544,-0.696851 -0.4063,0 -0.696851,0.291733 -0.696851,0.696851 0,0.407481 0.290551,0.696851 0.696851,0.696851zm-4.12559 5.6315c0.350788,0 0.699213,-0.348425 0.699213,-0.696851 0,-0.405118 -0.348425,-0.69567 -0.699213,-0.69567 -0.403937,0 -0.754725,0.290551 -0.754725,0.69567 0,0.348425 0.350788,0.696851 0.754725,0.696851zm1.92047 -4.58622c0.405118,0 0.753544,-0.288189 0.753544,-0.69567 0,-0.4063 -0.348425,-0.698032 -0.753544,-0.698032 -0.408662,0 -0.760631,0.291733 -0.760631,0.698032 0.0011811,0.407481 0.351969,0.69567 0.760631,0.69567zm4.58741 -0.928347c0.407481,0 0.755906,-0.347244 0.755906,-0.754725 0,-0.348425 -0.348425,-0.696851 -0.755906,-0.696851 -0.407481,0 -0.755906,0.348425 -0.755906,0.696851 0,0.4063 0.348425,0.754725 0.755906,0.754725zm12.0862 188.348c-2.43543,0 -4.64292,-0.558662 -6.31418,-1.3937l12.4973 0c-1.65591,0.806694 -3.80551,1.3937 -6.18308,1.3937zm-14.3599 -16.2414c0.200788,0.0637796 0.416929,0.0992127 0.644882,0.0992127 -0.210236,0 -0.467717,-0.00826772 -0.644882,-0.0992127zm33.0118 14.641l0 -9.31418 0.0578741 0c-2.5004,0 -4.59095,-1.91575 -4.59095,-4.29685 0,-0.408662 0.11811,-0.699213 0.231496,-1.04646l-0.011811 0c0.589371,-0.199606 1.00039,-0.646063 1.00039,-1.15984 0,-0.755906 -0.753544,-1.33583 -1.68662,-1.33583l-27.3673 0c-0.928347,0 -1.68307,0.579922 -1.68307,1.33583 0,0.520867 0.422835,0.975591 1.02284,1.16929 -0.0106299,-0.00354331 -0.0248032,-0.00354331 -0.0354331,-0.00944883 0.0590552,0.347244 0.115748,0.698032 0.115748,1.04646 0,2.3811 -2.0315,4.29685 -4.58977,4.29685l0.0602363 0 0 9.3189c-0.111024,0.0484252 -0.244488,0.0921261 -0.349607,0.144095 -1.68543,0.870473 -3.8941,1.45158 -6.45119,1.45158l0.0602363 3.9437c-0.0212599,0 -0.0389764,0.00472441 -0.0602363,0.00472441l0.0602363 3.94252c-0.0212599,0 -0.0389764,0.00472441 -0.0602363,0.00472441l0.0602363 3.88701c-0.0212599,0.0011811 -0.0389764,0.00354331 -0.0602363,0.00354331l0.0602363 4.0004c-0.0212599,0 -0.0389764,0.00472441 -0.0602363,0.00472441l0.0602363 3.95079c2.49685,0 4.70552,-0.584646 6.39095,-1.45512 1.62756,-0.810237 3.89055,-1.33347 6.33189,-1.33347 2.49921,0 4.76575,0.523229 6.39095,1.33347 1.6878,0.870473 3.95079,1.45512 6.45119,1.45512 2.5004,0 4.76339,-0.641339 6.44882,-1.51181 1.62638,-0.812599 3.83504,-1.27677 6.21851,-1.27677 2.49803,0 4.64882,0.464174 6.33308,1.33347 1.62638,0.870473 3.95079,1.45512 6.44882,1.45512l0 -3.95079 0 -3.94725c-2.49803,0 -4.82244,-0.579922 -6.44882,-1.45158 1.62638,0.871654 3.95079,1.3937 6.44882,1.3937l0 -3.89055 0 -3.94725 0 -3.94843c-2.49803,0 -4.82244,-0.581103 -6.44882,-1.45158 -0.109843,-0.0555119 -0.237402,-0.0956694 -0.348425,-0.148819zm7.68662 -47.5985c0.0968505,0.0968505 0.197244,0.19252 0.282284,0.287008 -0.0850394,-0.0944883 -0.186614,-0.190158 -0.282284,-0.287008zm-144.709 -63.1902c10.9689,2.29961 19.5626,13.8992 20.9114,28.4244l57.5989 0 0 -18.2622c5.93623,-2.24055 15.4417,-3.92481 26.3209,-4.31457 0.0590552,0 0.11811,0.00708662 0.174803,0.00708662l0 23.798 0 0.00354331c-1.61339,-0.955513 -3.07559,-1.88622 -4.35,-2.77441 1.27795,0.88819 2.73071,1.81536 4.35,2.77087l-0.0578741 -12.8327c-4.59213,0.698032 -8.07757,1.85788 -9.81851,3.25276l-0.0732284 0.180709c-0.754725,1.26969 -1.84606,13.3476 -1.84606,13.3476 -0.935434,1.74567 3.98268,6.02126 11.7957,10.6488l0 47.876 26.6705 0 0 -36.0945c4.0689,1.39606 8.0941,3.47008 10.8083,5.36103 -0.741733,-0.510237 -1.5815,-1.03228 -2.5004,-1.54606 -2.3811,1.73858 -3.83504,4.52481 -3.83504,7.60276 0,2.90197 1.39606,5.57481 3.60355,7.31575 -1.27795,-1.50945 0.347244,-4.81772 2.96339,-6.6189 1.68307,-1.16102 2.90433,-1.91575 3.07914,-2.90197 0.0472441,-0.12874 0.0472441,-0.277559 0.0177165,-0.433465 0.0295276,0.157087 0.0318898,0.307087 -0.0177165,0.433465l2.44252 -13.2378c0.046063,-0.137008 0.0590552,-0.283465 0.0413386,-0.440552 -0.122835,-2.04567 -6.18662,-5.59371 -14.8394,-8.94922 -0.575197,-0.22441 -1.16457,-0.448819 -1.76339,-0.667323l0 -27.9142 0 -3.38504c2.46496,0.905906 4.65473,1.89213 6.51497,2.92441 -2.02323,0.231496 -4.21063,0.46063 -6.51497,0.46063l0.0578741 12.7736c7.37717,-0.523229 12.4335,-2.49803 13.0134,-5.57481 -0.0555119,0.116929 -0.0555119,0.290551 -0.116929,0.4063 0.0011811,0 5.98583,-13.4705 6.10394,-13.9335 0.0366142,-0.20315 0.0543308,-0.4063 0.0555119,-0.611811l0 -0.0413386c-0.0259843,-4.32166 -7.80355,-9.25394 -19.1138,-12.6024l0 -32.8441 -26.6705 0 0 29.087c-0.0188977,0 -0.0389764,0 -0.0578741,0 -10.9536,0 -20.4614,1.36417 -26.439,3.44646l0.0011811 -54.0745 -60.306 0c10.9595,-1.05354 20.7036,-2.85945 28.5236,-5.22756 0.929528,-0.287008 1.39488,-1.15984 1.39488,-2.03032 0,-0.819686 -0.427559,-1.52008 -1.24843,-1.8437 0.180709,0.0531496 0.372048,0.103937 0.550394,0.16063 -0.868111,-0.38504 -0.961418,-1.39134 -0.209055,-3.67677l0.26811 0.191339 3.07914 -1.27677 -1.77874 -2.35276c1.37008,-1.96654 2.83583,-2.05984 3.06024,-2.05866 0.928347,0.28937 1.91575,-0.0578741 2.26299,-0.987402 0.290551,-0.870473 -0.233858,-1.91457 -1.16339,-2.2063 -0.889371,-0.271654 -1.79882,-0.53504 -2.73425,-0.793701l0.0968505 -0.271654c0.6,0.370866 1.26142,0.648426 1.99725,0.773623 2.2689,0.348425 5.0563,-0.752363 6.9756,-1.85669 2.4626,-1.40197 4.78819,-4.37244 5.87008,-5.87481 0.902363,0.470079 2.29252,0.249213 3.4252,-0.686221 1.27677,-1.16221 1.62756,-2.72835 0.814961,-3.59882 0.113386,0.114567 0.231496,0.28937 0.288189,0.405118 0,0 1.8,-3.4252 3.95197,-4.58741 2.09055,-1.10197 5.69528,-0.811418 5.69528,-0.811418 0,-2.61378 -2.09173,-4.76221 -4.88268,-4.76221 -0.151181,0 -0.294095,0.0366142 -0.445276,0.0472441l0.122835 -1.05236 0.43937 0.71693 2.32559 -1.85906 -1.72914 -2.74252 0.00236221 0 1.43386 2.27717c2.49803,-3.19252 3.95079,-6.96615 3.95079,-10.9724 0,-6.8504 -4.41496,-12.8906 -10.9795,-16.8378 0.0602363,0.0401575 0.111024,0.0850394 0.173622,0.124016 -5.22402,-3.36496 -12.6177,-5.46496 -20.8595,-5.46496 -2.29252,0 -4.50473,0.184252 -6.65079,0.49252 -0.28937,-0.184252 -0.622441,-0.317717 -1.01811,-0.317717 -0.607087,0 -1.12205,0.301181 -1.44803,0.737008 -0.33189,0.0637796 -0.667323,0.119291 -0.994489,0.190158 0.23504,0.255118 0.440552,0.532678 0.651969,0.807875 0,0.00944883 0.00590552,0.0212599 0.00590552,0.0330709 -1.51417,-1.84134 -3.4441,-3.48662 -5.71182,-4.84489 2.00197,1.59331 3.51142,3.4689 4.49174,5.53583 -3.09095,-6.28465 -11.5051,-10.9937 -21.7477,-10.9937 -5.63741,0 -10.8662,1.39252 -14.8181,3.71457 0.0696851,0.581103 0.138189,1.17165 0.206693,1.77756 -0.0968505,-0.819686 -0.185433,-1.65591 -0.322441,-2.41536 -0.173622,-0.783071 -0.536221,-1.48583 -1.01221,-2.10473 0.323622,0.292914 0.762993,0.477166 1.24488,0.477166 0.988583,0 1.80236,-0.752363 1.80236,-1.68425 0,-0.927166 -0.81378,-1.68189 -1.80236,-1.68189 -0.987402,0 -1.80118,0.754725 -1.80118,1.68189 0,0.392126 0.166536,0.735827 0.407481,1.02284 -0.817323,-0.97441 -1.96063,-1.67362 -3.26339,-1.98543 2.31851,-0.462992 4.22599,-1.9689 5.15079,-3.97087l0.0283465 0c0,-0.0590552 0,-0.0590552 0.0590552,-0.0590552 0.348425,-0.81378 0.581103,-1.73977 0.581103,-2.66929 0,-0.135827 -0.0425197,-0.246851 -0.0956694,-0.354331 -0.16063,-2.97166 -2.26654,-5.40945 -5.13426,-6.2315l0.0011811 -5.25827 3.94961 0 0 -3.77362 -3.94961 0 0 -3.66024 -4.01103 0 0 3.66024 -3.94961 0 0 3.77362 3.94961 0 0 5.20748c-3.07205,0.801969 -5.34331,3.4441 -5.34331,6.63662 0,0.732284 0.147638,1.44921 0.393307,2.12362 0.798426,2.28898 2.81457,4.05827 5.34922,4.57087 -1.23307,0.283465 -2.3504,0.884646 -3.18189,1.73858 0.132284,-0.232677 0.226772,-0.487796 0.226772,-0.77126 0,-0.927166 -0.812599,-1.68189 -1.8,-1.68189 -0.987402,0 -1.80236,0.754725 -1.80236,1.68189 0,0.93189 0.814961,1.68425 1.80236,1.68425 0.454725,0 0.862205,-0.172441 1.17992,-0.437008 -0.474804,0.609449 -0.836221,1.29921 -1.0063,2.06457 -0.0307087,0.198425 -0.046063,0.427559 -0.0744095,0.627166 -3.94961,-2.31496 -9.17127,-3.70394 -14.8004,-3.70394 -9.46536,0 -17.3693,4.01929 -20.9551,9.58938 0.949607,-1.51417 2.18622,-2.90788 3.69803,-4.1315 -2.28307,1.36772 -4.213,3.02717 -5.72008,4.8815 0.00236221,-0.022441 0.0153543,-0.046063 0.0153543,-0.0720473 0.210236,-0.272835 0.415748,-0.550394 0.649607,-0.805512 -0.323622,-0.0732284 -0.66378,-0.127559 -0.994489,-0.19252 -0.327166,-0.433465 -0.840946,-0.734646 -1.44567,-0.734646 -0.37441,0 -0.703938,0.133465 -0.994489,0.317717 -2.14725,-0.308268 -4.38307,-0.49252 -6.67441,-0.49252 -9.04016,0 -17.0917,2.5252 -22.3394,6.47717 -5.64922,3.92481 -9.32717,9.4689 -9.32717,15.7016 0,3.98977 1.49882,7.74804 3.97914,10.9323l-0.320079 0.505512 2.19803 1.75748 0.0531496 0.459449c-2.42953,0.33189 -4.22599,2.30906 -4.22599,4.69252 0,0 3.66024,-0.290551 5.75197,0.811418 2.14961,1.16221 3.95197,4.58741 3.95197,4.58741 0.0011811,-0.00472441 0.00708662,-0.0106299 0.00944883,-0.0141732 -0.46063,0.89882 -0.011811,2.20394 1.0937,3.20788 1.09016,0.94252 2.4874,1.16102 3.42402,0.676772 1.07953,1.48701 3.40748,4.44095 5.87363,5.88426 1.91693,1.10433 4.70552,2.20512 6.913,1.85669 0.372048,-0.0625985 0.721654,-0.173622 1.06181,-0.303544l0.0307087 0.090945c-0.581103,0.165354 -1.16811,0.33189 -1.73032,0.504331 -0.988583,0.291733 -1.45276,1.33583 -1.16221,2.2063 0.28937,0.929528 1.33701,1.27677 2.26536,0.987402 0,0 1.61693,-0.0720473 3.06851,2.0374l-1.84843 2.37402 3.13819 1.27677 0.270473 -0.196063c0.767717,2.2878 0.714567,3.29646 -0.154725,3.6815 0.0968505,-0.0318898 0.199606,-0.0578741 0.296457,-0.0885827 -0.687402,0.350788 -1.10315,1.00394 -1.05236,1.77165 -0.056693,0.870473 0.407481,1.74331 1.33701,2.03032 7.8567,2.36811 17.6126,4.17402 28.5792,5.22756l-59.6067 0 0 54.1524c-6.01654,-2.12835 -15.6343,-3.52441 -26.7284,-3.52441 -0.0188977,0 -0.0389764,0 -0.0578741,0l0 -29.087 -26.6114 0 0 32.837c-11.3681,3.35197 -19.1587,8.29843 -19.1209,12.6284 0.0011811,0.212599 0.022441,0.424016 0.0625985,0.634252 0.0590552,0.462992 6.04252,13.9335 6.04252,13.9335 0,-0.115748 -0.0578741,-0.28937 -0.0578741,-0.4063 0.581103,3.07677 5.57835,5.05158 13.0158,5.57481l0.0578741 -12.7736c-2.37874,0 -4.58268,-0.232677 -6.55749,-0.465355 1.87087,-1.03701 4.07244,-2.03032 6.55749,-2.93977l0 3.40512 0 27.8906c-0.616536,0.227953 -1.22008,0.458268 -1.81181,0.690945 -8.61024,3.35788 -14.6764,6.90827 -14.8417,8.95276 -0.0188977,0.154725 -0.00826772,0.3 0.0354331,0.437008l2.44134 13.2378c-0.0437008,-0.122835 -0.0437008,-0.261024 -0.0153543,-0.407481 -0.0259843,0.144095 -0.0318898,0.283465 0.0153543,0.407481 0.232677,0.986221 1.3937,1.74095 3.07914,2.90197 2.67166,1.80118 4.24016,5.10945 3.02126,6.6189 2.20748,-1.74095 3.60236,-4.41378 3.60236,-7.31575 0,-3.07796 -1.50945,-5.86418 -3.83504,-7.60276 -1.29213,0.725197 -2.43071,1.46339 -3.36614,2.16614 2.69292,-2.05394 7.16693,-4.45276 11.6752,-6.00119l0 36.1146 26.6114 0 0 -47.8559c7.85552,-4.63465 12.7772,-8.91851 11.7957,-10.6689 0,0 -0.948426,-10.4976 -1.68898,-12.9532 0,0 0,0.00236221 0.0011811,0.00236221 -0.0011811,0 -0.0011811,-0.00236221 -0.0011811,-0.00236221 0.00708662,0.0425197 -0.0106299,0.0933072 -0.00590552,0.138189 -0.00472441,-0.0791339 -0.00708662,-0.16063 -0.0271654,-0.232677 0.0106299,0.034252 0.022441,0.0578741 0.0330709,0.0944883 0,0 0,0 0,-0.0011811 0,0.0011811 0,0.0011811 0,0.0011811 -0.0177165,-0.0944883 -0.0129921,-0.200788 -0.0543308,-0.284646l-0.174803 -0.290551c-1.74213,-1.39488 -5.17087,-2.55473 -9.81969,-3.25276l-0.0578741 12.8327c3.34488,-1.97008 6.01654,-3.83977 7.78347,-5.43426 -0.0389764,0.034252 -0.068504,0.0673229 -0.10748,0.103937 -0.0188977,0.0165354 -0.0377953,0.0330709 -0.0555119,0.0484252 -0.322441,0.285827 -0.673229,0.581103 -1.05118,0.882284 -0.0425197,0.0354331 -0.0874016,0.068504 -0.129921,0.103937 -0.36378,0.287008 -0.750001,0.581103 -1.16221,0.882284 -0.0744095,0.0543308 -0.154725,0.111024 -0.230315,0.166536 -0.394488,0.284646 -0.805512,0.571654 -1.23898,0.868111 -0.113386,0.0767717 -0.23504,0.155906 -0.35315,0.23504 -0.414567,0.275197 -0.837402,0.555119 -1.28268,0.837402 -0.165354,0.105118 -0.340158,0.210236 -0.510237,0.316536 -0.418111,0.262205 -0.842127,0.52441 -1.2874,0.791339 -0.120473,0.0720473 -0.250394,0.145276 -0.37441,0.218504l0 -0.0200788 0 -23.798c0.0578741,0 0.11811,-0.00708662 0.174803,-0.00708662 11.1095,0.39567 20.7508,2.1248 26.6114,4.41851l0 18.1583 57.3603 0c1.34882,-14.5252 9.94253,-26.1248 20.9114,-28.4244l0 -59.9339 8.00079 0 0 59.9339zm20.9114 36.4252c-1.34764,14.5252 -9.94135,26.1248 -20.9114,28.4244l0 69.8375c20.1898,-0.56693 39.7394,-5.72953 56.6056,-13.9394 9.53268,-4.76103 16.7504,-12.9945 19.9996,-22.898 0.0555119,-0.166536 0.113386,-0.327166 0.165354,-0.491339 0.307087,-0.979135 0.583465,-1.97126 0.812599,-2.9811 0.174803,-0.752363 0.298819,-1.52008 0.429922,-2.28425 0.0366142,-0.251575 0.0850394,-0.498426 0.116929,-0.748819 0.257481,-1.76221 0.438189,-3.54449 0.438189,-5.37284l0 -49.5461 -57.6567 0zm-107.256 0l-0.101575 48.7914c0.0401575,1.62284 0.184252,3.17362 0.383859,4.68307 0.325985,3.09095 1.07244,6.05434 2.11772,8.89253 0.207874,0.583465 0.433465,1.15394 0.667323,1.72677 0.120473,0.277559 0.225591,0.562205 0.350788,0.839764 0.982678,2.2311 2.18032,4.35118 3.56221,6.34725 0.764174,1.13504 1.54134,2.21575 2.3315,3.17362l0 -0.103937c3.47362,4.09134 7.80827,7.50001 12.7819,9.97205 16.6453,8.12953 36.2776,13.2709 56.25,13.9217l0 -69.8197c-10.9701,-2.29961 -19.5638,-13.8992 -20.9114,-28.4244l-57.4323 0zm230.405 26.1744c0.090945,0.0744095 0.190158,0.152362 0.272835,0.227953 -0.0826772,-0.0755906 -0.18189,-0.153543 -0.272835,-0.227953zm-1.52008 -1.16929c0.275197,0.19252 0.532678,0.382677 0.778347,0.570473 -0.249213,-0.188977 -0.499607,-0.377953 -0.778347,-0.570473zm2.69764 2.33386c0.090945,0.115748 0.173622,0.225591 0.245669,0.334252 -0.0720473,-0.106299 -0.154725,-0.219685 -0.245669,-0.334252zm0.379134 0.546851c0.0696851,0.12874 0.120473,0.250394 0.153543,0.367323 -0.0330709,-0.116929 -0.0838583,-0.240945 -0.153543,-0.367323zm-47.2831 -39.163c-0.259843,-0.209055 -0.498426,-0.413386 -0.729922,-0.612993 0.231496,0.199606 0.468898,0.403937 0.729922,0.612993zm1.69725 1.2874c-0.348425,-0.250394 -0.686221,-0.499607 -1.00394,-0.742914 0.320079,0.245669 0.65315,0.49252 1.00394,0.742914zm-4.65591 -4.30158c0.112205,0.180709 0.258662,0.370866 0.414567,0.564567 -0.154725,-0.193701 -0.301181,-0.383859 -0.414567,-0.564567zm0.714567 0.943702c0.265748,0.301181 0.581103,0.617717 0.93189,0.944883 -0.35315,-0.327166 -0.666142,-0.643701 -0.93189,-0.944883zm-1.07717 -2.71418c-0.0980316,0.187795 -0.114567,0.408662 -0.0897638,0.64252 -0.0248032,-0.233858 -0.00826772,-0.454725 0.0897638,-0.64252zm0.167717 1.41851c-0.0885827,-0.178347 -0.151181,-0.346063 -0.194882,-0.507874 0.0437008,0.159449 0.106299,0.329528 0.194882,0.507874zm-179.193 -150.499c-0.0496063,0.068504 -0.0968505,0.134646 -0.145276,0.204331 0.0484252,-0.0696851 0.0956694,-0.135827 0.145276,-0.204331zm33.0662 -7.01812c0.248032,0.120473 0.517323,0.205512 0.814961,0.205512 0.0968505,0 0.179528,-0.0377953 0.272835,-0.0519685 0.119291,0.0212599 0.248032,0.0283465 0.366142,0.0519685 -0.412205,0.646063 -0.764174,1.31221 -1.07008,1.99606 -0.219685,-0.0862205 -0.466536,-0.138189 -0.731103,-0.138189 -0.987402,0 -1.74331,0.755906 -1.74331,1.68307 0,0.842127 0.629528,1.50827 1.47874,1.63347 -0.111024,0.641339 -0.168898,1.29803 -0.180709,1.95945 -0.8563,0.127559 -1.52953,0.796064 -1.52953,1.63347 0,0.929528 0.812599,1.68425 1.80118,1.68425 0.034252,0 0.0637796,-0.0165354 0.0992127,-0.0177165 0.140551,0.584646 0.320079,1.15984 0.539764,1.72559 -0.477166,0.302362 -0.81378,0.790158 -0.81378,1.3689 0,0.0318898 0.0165354,0.0555119 0.0188977,0.0862205 -1.69134,0.0413386 -3.3189,0.0200788 -4.84134,-0.0862205 -4.47402,-0.116929 -10.924,1.16221 -17.3728,4.06536 -2.9752,1.3252 -5.6693,2.79567 -7.99253,4.32048 -1.22835,-1.91339 -1.9441,-4.1504 -1.9441,-6.52796 0,-1.91575 0.407481,-3.65906 1.22126,-5.28307 2.84646,-6.27048 12.841,-10.8579 24.7524,-10.8579 2.38229,0 4.65945,0.204331 6.85394,0.549213zm3.50906 0.0212599c0.0543308,-0.133465 0.105118,-0.266929 0.164173,-0.399213 -0.0602363,0.132284 -0.10748,0.265748 -0.164173,0.399213zm0.479528 -1.02874c0.170079,-0.330709 0.350788,-0.659056 0.546851,-0.979135 -0.200788,0.320079 -0.373229,0.649607 -0.546851,0.979135zm1.59213 4.9878c0.347244,-7.08426 9.00591,-12.9461 19.9866,-12.9461 5.68111,0 10.8402,1.56024 14.4413,4.04646 -0.103937,1.23189 -0.177165,2.51693 -0.205512,3.84803 0,0.290551 0,0.579922 0,0.870473 0,0.291733 -0.0590552,0.638977 -0.0590552,0.987402 -0.0354331,1.7752 -0.145276,3.47835 -0.304725,5.09056 -8.06339,0.504331 -14.8819,1.92284 -19.9146,3.90945 -3.06378,1.38189 -7.05591,2.42481 -11.4319,3.17008 -1.63347,-2.09646 -2.62914,-4.67953 -2.62914,-7.46812 0,-0.522048 0.0578741,-0.98504 0.116929,-1.50827zm61.8225 -12.9461c10.9807,0 19.6973,5.86182 20.0445,12.9473 0.0590552,0.522048 0.0590552,0.98504 0.0590552,1.50709 0,2.8252 -1.00158,5.4378 -2.67166,7.55079 -4.63819,-0.752363 -8.82875,-1.81063 -12.0295,-3.25276 -4.80355,-1.89449 -11.5524,-3.28347 -19.2697,-3.84567 -0.161811,-1.63228 -0.274016,-3.35433 -0.311811,-5.15433 0,-0.348425 -0.0578741,-0.69567 -0.0578741,-0.987402 0,-0.290551 0,-0.578741 0,-0.870473 -0.0271654,-1.32756 -0.100394,-2.61142 -0.212599,-3.84449 3.60118,-2.48858 8.76497,-4.05 14.4496,-4.05zm22.5036 10.2071c-0.0165354,-0.0543308 -0.0259843,-0.111024 -0.0437008,-0.165354 0.0165354,0.0543308 0.0271654,0.111024 0.0437008,0.165354zm-0.308268 -0.885827c-0.119291,-0.303544 -0.230315,-0.611811 -0.372048,-0.908268 0.137008,0.298819 0.256299,0.602363 0.372048,0.908268zm34.9784 9.95316c0.812599,1.62402 1.2189,3.36733 1.2189,5.28307 0,2.49921 -0.799607,4.83898 -2.14488,6.8126 -2.42126,-1.6252 -5.26772,-3.19607 -8.42953,-4.60512 -6.50788,-2.90315 -12.9567,-4.18229 -17.4307,-4.06536 -1.30039,0.0921261 -2.70118,0.112205 -4.14567,0.0921261 0.0011811,-0.0330709 0.0200788,-0.0590552 0.0200788,-0.0921261 0,-0.565748 -0.32126,-1.04173 -0.780709,-1.34764 0.225591,-0.569292 0.409843,-1.14803 0.5563,-1.73858 0.0177165,0.00236221 0.0318898,0.00944883 0.0507874,0.00944883 0.987402,0 1.80118,-0.754725 1.80118,-1.68425 0,-0.819686 -0.644882,-1.47165 -1.47165,-1.62047 -0.0129921,-0.670867 -0.0732284,-1.33228 -0.187795,-1.98189 0.833859,-0.144095 1.48465,-0.798426 1.48465,-1.62402 0,-0.927166 -0.81378,-1.68307 -1.80118,-1.68307 -0.245669,0 -0.479528,0.0472441 -0.692127,0.132284 -0.307087,-0.683859 -0.66378,-1.35 -1.08071,-1.99488 0.108662,-0.0212599 0.227953,-0.0248032 0.337796,-0.0472441 0.090945,0.0141732 0.175984,0.0519685 0.274016,0.0519685 0.317717,0 0.594095,-0.0874016 0.844489,-0.210236 2.1874,-0.341339 4.45276,-0.544489 6.82441,-0.544489 11.9114,0 21.9059,4.58741 24.7524,10.8579zm-1.73977 -6.60709c-0.112205,-0.0933072 -0.229134,-0.184252 -0.34252,-0.275197 0.113386,0.090945 0.227953,0.183071 0.34252,0.275197zm3.41575 3.6378c-0.105118,-0.147638 -0.207874,-0.295276 -0.317717,-0.444095 0.109843,0.148819 0.212599,0.294095 0.317717,0.444095zm-82.8048 53.041c1.02756,-0.0141732 2.0563,-0.0236221 3.09567,-0.0236221 0.0283465,0 0.056693,0 0.0850394,0 -1.06654,0.0011811 -2.12599,0.00944883 -3.18071,0.0236221zm-4.27205 0.0897638c-0.411024,0.011811 -0.81378,0.0318898 -1.22244,0.046063 0.408662,-0.0165354 0.812599,-0.0318898 1.22244,-0.046063zm1.25433 -0.0283465c0.840946,-0.022441 1.67953,-0.0448819 2.52874,-0.056693 -0.849213,0.011811 -1.6878,0.034252 -2.52874,0.056693zm-93.0296 97.6146c-0.103937,0.152362 -0.212599,0.305906 -0.344882,0.466536 0.133465,-0.16063 0.238583,-0.311811 0.344882,-0.466536zm-0.724016 0.89882c-0.0708662,0.0779528 -0.121654,0.146457 -0.197244,0.223229 -0.00472441,0.00590552 -0.0106299,0.011811 -0.0165354,0.0188977 -0.144095,0.15 -0.32126,0.307087 -0.483071,0.462992 0.255118,-0.243307 0.486615,-0.475985 0.696851,-0.705119zm1.26614 -1.94528c0.00472441,-0.0177165 0.0177165,-0.0354331 0.022441,-0.0543308 -0.00472441,0.0188977 -0.0177165,0.0366142 -0.022441,0.0543308zm-45.8646 -6.06024c0.0874016,-0.0649607 0.185433,-0.127559 0.276378,-0.190158 -0.0921261,0.0625985 -0.187795,0.125197 -0.276378,0.190158zm1.34764 -0.892914c0.32126,-0.200788 0.664961,-0.396851 1.01221,-0.592914 -0.350788,0.196063 -0.687402,0.392126 -1.01221,0.592914zm-4.94292 4.82835c-0.0165354,0.0377953 -0.0425197,0.0755906 -0.056693,0.111024 0.0141732,-0.0354331 0.0401575,-0.0732284 0.056693,-0.111024zm-0.312992 1.1185c0.00944883,-0.080315 0.0437008,-0.162992 0.0590552,-0.244488 -0.0141732,0.0814961 -0.0496063,0.164173 -0.0590552,0.244488zm-0.99567 44.2973c0.0271654,-0.0625985 0.0484252,-0.126378 0.0838583,-0.19252 -0.034252,0.0661418 -0.0578741,0.129921 -0.0838583,0.19252zm0.328347 -0.574016c0.0259843,-0.0354331 0.0519685,-0.0708662 0.0791339,-0.106299 -0.0271654,0.0330709 -0.0543308,0.0708662 -0.0791339,0.106299zm230.966 -167.935c0,0.927166 0.81378,1.68425 1.80354,1.68425 0.986221,-0.0011811 1.8,-0.757087 1.8,-1.68425 0.0011811,-0.929528 -0.81378,-1.68425 -1.8,-1.68425 -0.989765,0 -1.80354,0.754725 -1.80354,1.68425zm6.04489 -4.35709c0,-0.927166 -0.812599,-1.68189 -1.80118,-1.68189 -0.987402,0 -1.80236,0.755906 -1.80236,1.68189 0,0.988583 0.814961,1.68543 1.80236,1.68543 0.988583,0 1.80118,-0.696851 1.80118,-1.68543zm1.62638 -5.04804c0,-0.93189 -0.81378,-1.68425 -1.80118,-1.68425 -0.988583,0 -1.80354,0.752363 -1.80354,1.68425 0,0.98504 0.814961,1.74095 1.80354,1.74095 0.987402,0 1.80118,-0.755906 1.80118,-1.74095zm-3.37087 -5.40119c0,0.928347 0.812599,1.68425 1.80236,1.68425 0.986221,0 1.80118,-0.755906 1.80118,-1.68425 0,-0.929528 -0.814961,-1.68425 -1.80118,-1.68425 -0.989765,0 -1.80236,0.755906 -1.80236,1.68425zm-1.33583 -5.28426c0,0.929528 0.81378,1.68543 1.80118,1.68543 0.988583,0 1.80118,-0.755906 1.80118,-1.68543 0,-0.987402 -0.812599,-1.73977 -1.80118,-1.73977 -0.987402,0 -1.80236,0.752363 -1.80118,1.73977zm-0.987402 -3.13465c0.987402,0 1.80118,-0.812599 1.80118,-1.74095 0,-0.929528 -0.814961,-1.68425 -1.80118,-1.68425 -0.988583,0 -1.80354,0.754725 -1.80354,1.68425 0,0.928347 0.81378,1.74095 1.80354,1.74095zm-3.66142 -4.0063c0.989765,0 1.80236,-0.753544 1.80236,-1.68425 0,-0.928347 -0.812599,-1.74095 -1.80236,-1.74095 -0.988583,0 -1.80118,0.81378 -1.80118,1.74095 0.0011811,0.930709 0.812599,1.68425 1.80118,1.68425zm-4.29922 -3.30827c0.987402,0 1.80236,-0.757087 1.80236,-1.68425 0,-0.930709 -0.814961,-1.68425 -1.80236,-1.68425 -0.988583,0 -1.80118,0.753544 -1.80118,1.68425 0,0.927166 0.812599,1.68425 1.80118,1.68425zm-5.113 -2.67166c0.988583,0 1.80118,-0.754725 1.80118,-1.74095 0,-0.871654 -0.812599,-1.68425 -1.80236,-1.68425 -0.987402,0 -1.8,0.752363 -1.8,1.68425 0,0.986221 0.812599,1.74095 1.80118,1.74095zm-5.34685 -1.91575c0.987402,0 1.80236,-0.757087 1.80236,-1.68307 0,-0.988583 -0.814961,-1.74213 -1.80236,-1.74213 -0.988583,0 -1.79882,0.753544 -1.79882,1.74213 0,0.925985 0.810237,1.68307 1.79882,1.68307zm-5.9256 -1.0441c0.988583,0 1.80118,-0.81378 1.80118,-1.74331 0,-0.929528 -0.812599,-1.68425 -1.80236,-1.68425 -0.986221,0 -1.8,0.755906 -1.8,1.68425 0,0.929528 0.81378,1.74331 1.80118,1.74331zm-5.63622 -0.349607c0.986221,0 1.80118,-0.696851 1.80118,-1.68307 0,-0.930709 -0.814961,-1.68307 -1.80236,-1.68307 -0.986221,0 -1.8,0.752363 -1.8,1.68307 0,0.986221 0.81378,1.68307 1.80118,1.68307zm-5.5193 0.232677c0.988583,0 1.80118,-0.755906 1.80118,-1.74095 0,-0.93189 -0.81378,-1.68543 -1.80118,-1.68543 -0.987402,0 -1.80118,0.753544 -1.80118,1.68543 0,0.98504 0.81378,1.74095 1.80118,1.74095zm-5.52048 0c0.988583,0 1.80236,-0.755906 1.80236,-1.74095 0,-0.93189 -0.81378,-1.68543 -1.80236,-1.68543 -0.987402,0 -1.80118,0.753544 -1.80118,1.68543 0,0.98504 0.81378,1.74095 1.80118,1.74095zm-4.18347 -3.31063c0.987402,0 1.8,-0.754725 1.8,-1.68071 0,-0.93189 -0.812599,-1.68543 -1.80118,-1.68543 -0.987402,0 -1.79882,0.753544 -1.79882,1.68543 0,0.925985 0.811418,1.68071 1.8,1.68071zm-4.93819 -2.72835c0.987402,0 1.8,-0.754725 1.8,-1.68189 0,-0.93189 -0.812599,-1.68543 -1.8,-1.68543 -0.987402,0 -1.80118,0.753544 -1.80118,1.68543 0,0.927166 0.81378,1.68189 1.80118,1.68189zm-5.40473 -1.6252c0.987402,0 1.80118,-0.755906 1.80118,-1.68425 0,-0.927166 -0.81378,-1.68425 -1.80118,-1.68425 -0.988583,0 -1.8,0.757087 -1.8,1.68425 0,0.928347 0.811418,1.68425 1.8,1.68425zm-5.63622 -0.988583c0.988583,0 1.80236,-0.753544 1.80236,-1.68307 0,-0.928347 -0.81378,-1.68307 -1.80236,-1.68307 -0.987402,0 -1.80118,0.754725 -1.80118,1.68307 0,0.929528 0.81378,1.68307 1.80118,1.68307zm-5.5193 0.11811c0.987402,0 1.80118,-0.754725 1.80118,-1.68425 0,-0.929528 -0.81378,-1.74095 -1.80236,-1.74095 -0.987402,0 -1.79882,0.811418 -1.79882,1.74095 0,0.929528 0.811418,1.68425 1.8,1.68425zm-5.75197 0.987402c0.988583,0 1.80236,-0.755906 1.80236,-1.74213 0,-0.929528 -0.81378,-1.68425 -1.80236,-1.68425 -0.987402,0 -1.74331,0.754725 -1.74331,1.68425 0,0.98504 0.755906,1.74213 1.74331,1.74213zm-97.0914 43.8355c0,0.927166 0.812599,1.68425 1.85906,1.68425 0.928347,-0.0011811 1.74331,-0.757087 1.74331,-1.68425 0,-0.929528 -0.814961,-1.68425 -1.74331,-1.68425 -1.04646,0 -1.85906,0.754725 -1.85906,1.68425zm-0.640158 -6.03898c-0.987402,0 -1.8,0.755906 -1.8,1.68189 0,0.988583 0.812599,1.68543 1.8,1.68543 0.988583,0 1.80118,-0.696851 1.80118,-1.68543 0,-0.927166 -0.812599,-1.68189 -1.80118,-1.68189zm0.174803 -3.36614c0,-0.93189 -0.812599,-1.68425 -1.80118,-1.68425 -0.987402,0 -1.80118,0.752363 -1.80118,1.68425 0,0.98504 0.81378,1.74095 1.80118,1.74095 0.988583,0 1.80118,-0.755906 1.80118,-1.74095zm-2.03504 -3.71693c0.989765,0 1.80236,-0.755906 1.80236,-1.68425 0,-0.929528 -0.812599,-1.68425 -1.80236,-1.68425 -0.987402,0 -1.74213,0.755906 -1.74213,1.68425 0,0.928347 0.754725,1.68425 1.74213,1.68425zm1.33819 -5.28307c0.986221,0 1.8,-0.755906 1.8,-1.68543 0,-0.987402 -0.81378,-1.73977 -1.8,-1.73977 -0.988583,0 -1.80236,0.752363 -1.80236,1.73977 0,0.929528 0.81378,1.68543 1.80236,1.68543zm2.78858 -4.82008c0.987402,0 1.80118,-0.812599 1.80118,-1.74095 0,-0.929528 -0.81378,-1.68425 -1.80118,-1.68425 -0.988583,0 -1.80236,0.754725 -1.80236,1.68425 0,0.928347 0.81378,1.74095 1.80236,1.74095zm3.66024 -4.0063c1.04646,0 1.80118,-0.753544 1.80118,-1.68425 0,-0.928347 -0.754725,-1.74095 -1.80118,-1.74095 -0.987402,0 -1.80118,0.81378 -1.80118,1.74095 0,0.930709 0.81378,1.68425 1.80118,1.68425zm4.3004 -3.30827c0.986221,0 1.8,-0.757087 1.8,-1.68425 0,-0.930709 -0.81378,-1.68425 -1.8,-1.68425 -0.988583,0 -1.80236,0.753544 -1.80236,1.68425 0,0.927166 0.81378,1.68425 1.80236,1.68425zm5.11181 -2.67166c0.988583,0 1.80236,-0.754725 1.80236,-1.74095 0,-0.871654 -0.81378,-1.68425 -1.80236,-1.68425 -0.987402,0 -1.8,0.752363 -1.8,1.68425 0,0.986221 0.812599,1.74095 1.8,1.74095zm5.34685 -1.91575c0.987402,0 1.74331,-0.757087 1.74331,-1.68307 0,-0.988583 -0.755906,-1.74213 -1.74331,-1.74213 -0.987402,0 -1.80118,0.753544 -1.80118,1.74213 0,0.925985 0.81378,1.68307 1.80118,1.68307zm5.9256 -1.0441c0.988583,0 1.80118,-0.81378 1.80118,-1.74331 0,-0.929528 -0.812599,-1.68425 -1.80118,-1.68425 -0.987402,0 -1.80118,0.755906 -1.80118,1.68425 0,0.929528 0.81378,1.74331 1.80118,1.74331zm5.63741 -0.349607c0.986221,0 1.8,-0.696851 1.8,-1.68307 0.0011811,-0.930709 -0.81378,-1.68307 -1.80118,-1.68307 -0.986221,0 -1.80118,0.752363 -1.80118,1.68307 0,0.986221 0.814961,1.68307 1.80236,1.68307zm5.5193 0.232677c0.987402,0 1.8,-0.755906 1.8,-1.74095 0.0011811,-0.93189 -0.812599,-1.68543 -1.8,-1.68543 -0.988583,0 -1.80118,0.753544 -1.80118,1.68543 0,0.98504 0.812599,1.74095 1.80118,1.74095zm5.5193 0c0.987402,0 1.80118,-0.755906 1.80118,-1.74095 0,-0.93189 -0.81378,-1.68543 -1.80118,-1.68543 -0.986221,0 -1.8,0.753544 -1.8,1.68543 0,0.98504 0.81378,1.74095 1.8,1.74095zm4.24134 -3.31063c0.930709,0 1.74331,-0.754725 1.74331,-1.68071 0,-0.93189 -0.812599,-1.68543 -1.74331,-1.68543 -1.04528,0 -1.85906,0.753544 -1.85906,1.68543 0,0.925985 0.81378,1.68071 1.85906,1.68071zm4.8815 -2.72835c0.987402,0 1.80236,-0.754725 1.80236,-1.68189 0,-0.93189 -0.814961,-1.68543 -1.80236,-1.68543 -0.988583,0 -1.80118,0.753544 -1.80118,1.68543 0,0.927166 0.812599,1.68189 1.80118,1.68189zm5.40355 -1.6252c0.987402,0 1.80118,-0.755906 1.80118,-1.68425 0,-0.927166 -0.81378,-1.68425 -1.80118,-1.68425 -0.987402,0 -1.80118,0.757087 -1.80118,1.68425 0,0.928347 0.81378,1.68425 1.80118,1.68425zm5.63504 -0.988583c0.989765,0 1.80236,-0.753544 1.80236,-1.68307 0,-0.928347 -0.812599,-1.68307 -1.80236,-1.68307 -0.986221,0 -1.8,0.754725 -1.8,1.68307 0,0.929528 0.81378,1.68307 1.8,1.68307zm5.52048 0.11811c0.988583,0 1.80118,-0.754725 1.80118,-1.68425 0,-0.929528 -0.812599,-1.74095 -1.80118,-1.74095 -0.987402,0 -1.80118,0.811418 -1.80118,1.74095 0,0.929528 0.81378,1.68425 1.80118,1.68425zm5.75315 0.987402c0.987402,0 1.80118,-0.755906 1.80118,-1.74213 0,-0.929528 -0.81378,-1.68425 -1.80118,-1.68425 -0.987402,0 -1.80236,0.754725 -1.80236,1.68425 0,0.98504 0.814961,1.74213 1.80236,1.74213zm1051.96 -70.7812l0 397.255 -1536 0 0 -397.255 1536 0zm0 429.255l0 230.628 -1536 0 0 -230.628 1536 0z"/>
 </g>
 <rect class="fil1" width="2048" height="2048"/>
</svg>
