<?xml version="1.0" encoding="UTF-8"?>
<!DOCTYPE svg PUBLIC "-//W3C//DTD SVG 1.1//EN" "http://www.w3.org/Graphics/SVG/1.1/DTD/svg11.dtd">
<!-- Creator: CorelDRAW -->
<svg xmlns="http://www.w3.org/2000/svg" xml:space="preserve" width="2048px" height="2048px" style="shape-rendering:geometricPrecision; text-rendering:geometricPrecision; image-rendering:optimizeQuality; fill-rule:evenodd; clip-rule:evenodd"
viewBox="0 0 2048 2048"
 xmlns:xlink="http://www.w3.org/1999/xlink">
 <defs>
  <style type="text/css">
   <![CDATA[
    .fil1 {fill:none}
    .fil0 {fill:#424242}
   ]]>
  </style>
 </defs>
 <g id="Layer_x0020_1">
  <metadata id="CorelCorpID_0Corel-Layer"/>
  <path class="fil0" d="M255.999 562.744l1536 0 0 922.513 -1536 0 0 -922.513zm768.003 122.758l541.298 338.498 -541.298 338.498 -541.297 -338.498 541.297 -338.498z"/>
  <path class="fil0" d="M1024 793.501c127.302,0 230.499,103.198 230.499,230.499 0,127.302 -103.198,230.499 -230.499,230.499 -127.302,0 -230.499,-103.198 -230.499,-230.499 0,-127.302 103.198,-230.499 230.499,-230.499zm-103.583 109.109c-23.2902,0 -46.0406,1.74803 -68.3079,4.84252 -4.27914,9.74174 -7.76457,19.8862 -10.5473,30.352 25.6028,-4.40433 51.9178,-6.77363 78.8552,-6.77363 116.341,-0.011811 222.698,43.9016 302.98,116.053 3.24331,-10.1799 5.62323,-20.7272 7.05001,-31.4233 -83.8465,-70.5296 -191.94,-113.05 -310.03,-113.05zm111.751 242.779l0.676772 -1.9311 -1.71142 -1.19764 2.04567 0 0.646063 -2.02441 0.646063 2.02441 2.12599 0 -1.69725 1.1941 0.512599 1.93465 -1.62165 -1.18465 -1.62284 1.18465zm-83.054 -45.3638l2.02205 -5.86536 -5.19567 -3.61181 6.28937 0 1.87677 -5.94567 1.92756 5.94567 6.30709 0 -5.10473 3.58937 1.86142 5.8878 -4.96654 -3.63425 -5.01733 3.63425zm125.128 3.64607l1.26969 -3.9189 -3.32953 -2.46378 4.20709 0 1.2685 -3.88819 1.25906 3.88819 4.04292 0 -3.26221 2.42008 1.28386 3.9626 -3.39922 -2.42244 -3.34016 2.42244zm32.8146 4.83071l1.2378 -3.8126 -3.45827 -2.4437 4.18465 0 1.27913 -3.96851 1.28622 3.96851 4.10788 0 -3.31772 2.37992 1.25906 3.87638 -3.2941 -2.42244 -3.28465 2.42244zm-17.9091 18.7488l1.54606 -4.92993 -4.0878 -3.07559 5.14252 0 1.59803 -4.87678 1.59803 4.87678 5.06103 0 -4.15512 3.07559 1.61339 4.92993 -4.15748 -3.03544 -4.15866 3.03544zm-67.6878 -72.6804l0.982678 -2.82756 -2.48858 -1.76102 3.05433 0 0.912993 -2.77205 0.855119 2.77205 2.95276 0 -2.42599 1.84488 0.838583 2.7437 -2.34095 -1.7374 -2.34095 1.7374zm-10.8579 -12.5138l1.2626 -3.89528 -3.32126 -2.44252 3.96733 0 1.26614 -3.93307 1.3748 3.93307 4.08898 0 -3.28347 2.37756 1.2248 3.96024 -3.28937 -2.42717 -3.29055 2.42717zm19.1055 -16.689l1.58504 -4.98662 -4.12796 -2.93858 5.04922 0 1.61102 -4.83071 1.55197 4.83071 5.18741 0 -4.11614 2.97166 1.57441 4.95355 -4.15748 -3.03425 -4.15748 3.03425zm22.8992 17.8276l1.61929 -4.93937 -4.08071 -2.93858 5.12008 0 1.62047 -4.91221 1.62047 4.91221 5.03859 0 -4.15394 2.9563 1.61221 4.92166 -4.16929 -3.06733 -4.22717 3.06733zm-23.7744 40.624l1.92756 -5.94095 -5.02087 -3.60473 6.12993 0 1.95591 -5.87835 1.9063 5.87835 6.17953 0 -4.93819 3.67796 1.8437 5.86772 -4.95827 -3.66851 -5.02559 3.66851zm55.715 -101.445l1.26496 -3.92953 -3.32362 -2.40827 4.14331 0 1.17047 -4.00276 1.39961 4.00276 4.14449 0 -3.43347 2.4378 1.36299 3.9 -3.38977 -2.47205 -3.33898 2.47205zm-130.603 19.2189l1.66299 -4.83898 -4.20473 -3.08504 5.2063 0 1.61457 -4.87678 1.55551 4.87678 5.17323 0 -4.1067 3.06142 1.49528 4.8626 -4.16929 -3 -4.22717 3zm175.218 100.25l1.26496 -3.95315 -3.32362 -2.4189 4.06536 0 1.16811 -3.96851 1.39606 3.96851 4.22835 0 -3.39331 2.38465 1.33465 3.9874 -3.42992 -2.52756 -3.31063 2.52756zm35.5866 -5.23347l1.66063 -4.77284 -4.20237 -3.02481 5.16969 0 1.57087 -4.91221 1.62874 4.91221 5.03032 0 -4.02874 3.0189 1.48701 4.77874 -4.09961 -2.95866 -4.21654 2.95866zm-15.0555 8.9256l1.30394 -3.84449 -3.3626 -2.50394 4.09134 0 1.37126 -3.92244 1.14685 3.92244 4.16693 0 -3.37323 2.50394 1.30394 3.84449 -3.32481 -2.38229 -3.32362 2.38229zm-19.9784 35.6209l1.26732 -3.82677 -3.32599 -2.39528 4.08189 0 1.23189 -3.92244 1.2815 3.92244 4.10079 0 -3.34607 2.33268 1.2874 3.88937 -3.34252 -2.33032 -3.23622 2.33032zm-0.552756 -18.7819l1.56614 -4.93347 -4.09607 -2.95748 5.01615 0 1.63228 -4.94528 1.58032 4.94528 5.15906 0 -4.14213 2.94921 1.45039 4.94174 -4.08307 -3.00473 -4.08307 3.00473zm47.7898 -41.6138l1.55906 -4.93583 -4.10079 -2.94331 5.15315 0 1.50709 -4.95709 1.56496 4.95709 5.17441 0 -4.0689 3.04252 1.52717 4.83662 -4.15748 -3.08504 -4.15866 3.08504zm20.289 -16.839l1.23662 -3.86221 -3.29528 -2.42835 4.07008 0 1.3937 -3.93425 1.28268 3.93425 3.95079 0 -3.20788 2.35866 1.14921 3.93189 -3.29055 -2.4189 -3.28937 2.4189zm-29.2488 0.437008l1.90512 -5.87363 -5.06811 -3.6378 6.18071 0 1.89331 -5.86654 1.96181 5.86654 6.20552 0 -4.90276 3.59528 1.9689 5.91615 -5.09646 -3.65079 -5.04804 3.65079zm-77.5796 -131.269l1.96536 -5.93623 -5.05867 -3.6567 6.19252 0 1.89331 -5.86536 1.9441 5.86536 6.14174 0 -4.98426 3.63898 1.97008 5.95394 -5.06457 -3.65433 -4.99961 3.65433zm-169.834 147.671l1.54961 -4.90867 -4.07953 -2.97047 5.03504 0 1.62402 -4.95709 1.55788 4.95709 5.17087 0 -4.11614 2.95394 1.50473 4.9252 -4.15158 -3.0378 -4.09489 3.0378zm6.02717 -19.8059l1.47165 -4.76221 -4.1752 -3.04725 5.2004 0 1.62047 -4.94646 1.50354 4.94646 5.0752 0 -4.06654 2.96811 1.60512 4.84134 -4.20473 -2.99292 -4.02992 2.99292zm-20.2087 -34.2414l0.849213 -2.81221 -2.43662 -1.69606 2.94803 0 1.02047 -2.86418 0.890552 2.86418 2.90433 0 -2.37756 1.73622 0.951969 2.77205 -2.3752 -1.76929 -2.3752 1.76929zm-44.6965 31.2733l1.20118 -3.90945 -3.27047 -2.43898 4.16457 0 1.14921 -3.9567 1.26614 3.9567 4.12796 0 -3.31536 2.47205 1.25669 3.87638 -3.2941 -2.43071 -3.28583 2.43071zm22.5095 -15.4925l1.91457 -5.92678 -4.85906 -3.63071 6.12402 0 1.96181 -5.86654 1.85197 5.86654 6.08386 0 -4.85788 3.63071 1.91339 5.92678 -5.00788 -3.68622 -5.12481 3.68622zm-17.5169 -83.5371l1.94764 -5.85237 -5.04213 -3.61418 6.17835 0 1.90748 -5.89961 1.96654 5.89961 6.1193 0 -4.97244 3.64843 1.87795 5.81811 -4.99489 -3.63898 -4.9878 3.63898zm-2.62323 -32.7343c2.62323,-0.356693 4.52008,-3.27756 4.19882,-6.53268 -0.392126,-3.29055 -2.85236,-5.62441 -5.70591,-5.26772 -2.77087,0.31063 -4.6689,3.20906 -4.27796,6.49843 0.483071,3.28937 3.01418,5.62323 5.78504,5.31378l0 -0.011811zm31.7799 0.679134c-0.115748,-2.10591 -0.338977,-6.17363 -2.40118,-7.75276 1.5815,-1.16693 2.61378,-3.12874 2.56299,-5.27835 -0.311811,-3.25512 -3.16418,-5.75079 -6.33898,-5.50985l-10.9382 0.747638 1.18583 18.9425 3.41457 -0.32126 -0.483071 -6.96969 7.51182 -0.506693c1.90394,1.85906 2.18504,5.10119 2.39173,6.84449l3.09449 -0.196063zm212.392 29.2831l3.32953 1.44921c1.34882,-3 0.311811,-6.3626 -2.14488,-7.46457 -2.5311,-1.08189 -5.62441,0.426378 -6.89056,3.48425 -1.34646,3.00236 -0.48189,6.37205 2.14016,7.44095 1.79173,0.848032 3.86693,0.281103 5.3752,-1.19646l-2.84528 -1.29921 1.03583 -2.41418zm6.65788 2.89843l-0.105118 0.23504 -3.78071 8.40237 -2.30079 -1.11614 0.981497 -2.32677c-2.06693,0.874016 -4.37717,0.973229 -6.44528,0.0732284 -4.27796,-1.86378 -6.02717,-7.29213 -3.96851,-12.0886 2.07166,-4.83071 7.213,-7.1315 11.5028,-5.26654 4.34764,1.89685 6.09567,7.24489 4.11614,12.0874zm-49.4563 -9.31654c0.68504,-2.02087 1.90748,-5.9126 0.568111,-8.0941 1.96181,-0.475985 3.59174,-1.92402 4.2626,-3.94725 1.03465,-3.12874 -0.702756,-6.46536 -3.79488,-7.45276l-10.4551 -3.29173 -5.87835 17.954 3.41575 1.02402 2.14016 -6.64725 7.05001 2.25473 0.0921261 0.0271654c1.05945,2.40118 0.090945,5.47796 -0.483071,7.2189l3.08268 0.954331zm-182.821 -32.4922l7.28032 -0.47126c1.35827,-0.161811 2.22047,-1.31102 2.22047,-2.65748 -0.15,-1.39134 -1.18465,-2.3811 -2.45079,-2.22047l-7.37127 0.392126 0.32126 4.95709zm24.6484 5.67048l5.14134 -0.126378c2.85236,-0.0354331 5.15315,-2.41536 5.00315,-5.18741l0 -1.70197c0,-2.69173 -2.29961,-4.95827 -5.07166,-4.95827l-5.23347 0.127559 0.16063 11.8465zm20.439 3.36969l17.1142 0.587008 0.172441 -3.56575 -13.7209 -0.472441 0.159449 -4.79528 10.8591 0.276378 0 -3.20906 -10.6973 -0.402756 0 -3.71575 13.0772 0.437008 0 -3.56457 -16.1705 -0.564567 -0.793701 18.9898zm24.176 0.988583l3.24449 0.277559 1.11496 -12.9177 2.52992 13.2272 3.09449 0.276378 4.83071 -12.5953 -1.10551 12.9177 3.16418 0.309449 1.66772 -18.8965 -4.6004 -0.392126 -4.99134 12.5941 -2.61142 -13.2721 -4.76221 -0.392126 -1.57559 18.8634zm39.0721 4.39489l14.1815 2.37992 0.390945 -3.17481 -10.6973 -1.81654 0.713386 -4.24489 8.87953 1.50591 0.401575 -3.24213 -8.64804 -1.47165 0.402756 -2.96811 10.4551 1.81772 0.402756 -3.20906 -13.4811 -2.3811 -3.00118 16.8047zm42.1536 -2.30079l6.98032 1.8626c1.34646,0.357874 2.53229,-0.437008 2.84173,-1.73622 0.402756,-1.31102 -0.47126,-2.62205 -1.65591,-2.97992l-7.05001 -1.81654 -1.11614 4.67008zm23.6244 6.54449l6.97087 2.22047c1.10433,0.355512 2.60906,-0.28937 3.01299,-1.63347 0.47126,-1.30039 -0.240945,-2.56536 -1.5874,-3.01418l-6.90119 -2.20866 -1.49528 4.63583zm25.4303 16.0795c2.69055,1.0689 5.62323,-0.748819 6.82087,-3.79488 1.18347,-3.09567 0,-6.3378 -2.54173,-7.33938 -2.61024,-0.908268 -5.70591,0.759449 -6.88938,3.85276 -1.18465,3.04843 0.16063,6.3378 2.61024,7.2815zm43.1091 10.8224l6.50906 3.20906c1.18583,0.633071 2.61142,0.16063 3.24449,-1.07008 0.551575,-1.18347 0.16063,-2.65512 -1.03583,-3.25512l-6.64843 -3.24213 -2.06929 4.35827zm13.5614 18.737l14.8937 8.36221 1.5874 -3.04843 -11.8925 -6.77481 2.29961 -4.2437 9.43111 5.34804 1.58858 -2.93268 -9.35198 -5.22284 1.89803 -3.36851 11.1791 6.41693 1.89921 -3.04843 -14.263 -8.00434 -9.2693 16.5165zm27.6484 9.23623c-1.02284,1.54016 0,3.37087 2.22047,4.84252 2.29961,1.41378 3.8067,1.34528 4.52126,0.390945 2.05748,-3.33544 -9.82442,-8.04095 -6.17717,-13.676 3.08268,-4.86496 8.55591,-1.10433 10.6158,0.206693 2.05866,1.29921 5.31378,4.70433 2.77205,8.59253l-3.48544 -2.25473c1.18583,-1.63347 0,-3.33662 -1.97835,-4.35945 -1.74685,-1.26496 -3.17481,-1.78228 -4.20827,0 -1.8189,2.57599 9.9945,7.48701 6.26812,13.1929 -2.4626,4.16221 -7.1315,2.29961 -10.1457,0.402756 -2.77205,-1.71378 -6.57756,-5.67048 -4.12796,-9.59292l3.7252 2.25473zm20.289 13.3878c-1.18347,1.50591 -0.309449,3.36969 1.90984,4.95709 2.22047,1.5874 3.87756,1.66772 4.58977,0.633071 2.13898,-3.08268 -9.58229,-8.51221 -5.4626,-13.9536 3.40394,-4.70315 8.71772,-0.630709 10.6146,0.726379 2.05866,1.45984 4.99252,5.02559 2.22166,8.75198l-3.24567 -2.41536c1.02402,-1.63228 0,-3.28937 -1.82717,-4.6004 -1.7374,-1.23071 -2.93386,-1.78228 -4.11851,-0.148819 -1.90866,2.48386 9.43229,8.12008 5.62323,13.5484 -2.93268,4.03701 -7.5319,1.97835 -10.3051,-0.161811 -2.60906,-1.82717 -6.33662,-5.94449 -3.56457,-9.78662l3.56457 2.44961zm21.3248 18.9886c2.22047,1.81654 5.62559,1.10433 7.68426,-1.50591 2.05866,-2.57717 1.73622,-6.02717 -0.31063,-7.72914 -2.22047,-1.78347 -5.47559,-1.10433 -7.53426,1.50709 -2.21929,2.57599 -2.05984,6.06024 0.16063,7.72796zm-76.3146 -45.3284c0.927166,-1.89567 2.72126,-5.54528 1.76339,-7.92402 2.00079,-0.168898 3.86575,-1.34764 4.80473,-3.25512 1.50709,-2.97874 0.32126,-6.53268 -2.61142,-7.95827l-9.59056 -4.84252 -8.63859 16.8036 3.09331 1.54134 3.09449 -6.3378 6.72756 3.45118 0.034252 0.0153543c0.711024,2.55236 -0.720473,5.42126 -1.45984,7.0004l2.78268 1.50591zm74.0942 48.1359c3.71575,2.93386 9.27166,1.97835 12.515,-2.0941 3.25394,-4.12796 2.93268,-9.7878 -0.701575,-12.6862 -3.72638,-2.96693 -9.28111,-2.02441 -12.5268,2.10473 -3.25512,4.08426 -2.9315,9.74292 0.713386,12.6756zm-124.897 -70.6441c4.43977,1.5874 9.43111,-0.988583 11.2488,-5.86654 1.90984,-4.91103 -0.15,-10.2248 -4.58859,-11.8453 -4.43977,-1.70315 -9.59292,0.941339 -11.341,5.78386 -1.89803,4.94646 0.322441,10.2248 4.68071,11.928zm-54.0473 -16.6087l3.32481 0.918898 1.90984 -6.78544 7.20001 1.82953c3.25512,0.875198 6.51024,-1.07008 7.37245,-4.2437 0.713386,-3.16418 -1.18465,-6.37323 -4.27914,-7.29213l-10.4563 -2.69173 -5.07166 18.2646zm-123 -12.2043l8.8004 -0.196063c4.6004,-0.0330709 8.08583,-3.7252 8.08583,-8.27953l-0.161811 -2.70355c-0.080315,-4.3937 -3.8067,-8.03977 -8.24646,-7.95827l-8.78741 0.194882 0.309449 18.9425zm-39.4607 3.12874c4.6004,-0.551575 7.92402,-5.18741 7.21064,-10.3736 -0.563386,-5.15315 -4.83071,-8.91379 -9.51142,-8.32796 -4.76221,0.483071 -8.0067,5.23347 -7.21182,10.3866 0.551575,5.18622 4.83071,8.91497 9.51261,8.31497z"/>
 </g>
 <rect class="fil1" width="2048" height="2048"/>
</svg>
